<mxfile host="Electron" agent="Mozilla/5.0 (Windows NT 10.0; Win64; x64) AppleWebKit/537.36 (KHTML, like Gecko) draw.io/27.0.2 Chrome/134.0.6998.205 Electron/35.3.0 Safari/537.36" version="27.0.2">
  <diagram name="Page-1" id="h9lbUN41m7H_Env1hd7b">
    <mxGraphModel dx="1426" dy="849" grid="1" gridSize="10" guides="1" tooltips="1" connect="1" arrows="1" fold="1" page="1" pageScale="1" pageWidth="1100" pageHeight="850" math="0" shadow="0">
      <root>
        <mxCell id="0" />
        <mxCell id="1" parent="0" />
        <mxCell id="g0Y9ytgMzjQodCcQfiRF-1" value="" style="shape=image;verticalLabelPosition=bottom;labelBackgroundColor=default;verticalAlign=top;aspect=fixed;imageAspect=0;image=data:image/png,iVBORw0KGgoAAAANSUhEUgAAAj0AAAFoCAYAAAC8OkrYAAAAAXNSR0IArs4c6QAAAARnQU1BAACxjwv8YQUAAAAJcEhZcwAADsMAAA7DAcdvqGQAAKgYSURBVHhe7Z0HYBRFF8f/gVBCCaELSE2hBFRQEbBQTJASlBgBsSB8KFEREixgEBQbEVFJUNBgARsoGIMaahAEpQhCRAhIClXpCIQOgXzz5mYve5e7y97l0t8Px9ud3Z2t2fnve29mPLIFYBiGYRiGKeWUU78MwzAMwzClGhY9DMMwDMOUCSzcW+tW/oBdK2JQLjNdzOXl9fLANW8/tAyKRJce96k8hmEYhmGY4olZ9JDg8Vg9FJ0bnZILjLL+Xx9kd53DwodhGIZhmGKN2b31d9I044KnUi2gz3KgQVd0angKKctj1QKGYRiGYZjiiVn0lDuzG1eyPXGtWnMg+Hug62yggrdaqqNyXSBkFXDdHcguXxmnr9bAtTMH1EKGYRiGYZjiiVn0XLxWESezauHyLe/gyn+pYkkFoM1Taqmicj0heFYCNfyRvTwUp/duwOXsSiiJrd6XhHvAw8OUbo+lGCYT6bG3m/M9PMKxROXnYkm4w+X2ymcYhmEYpmjIsfQgG5XLXYDHpRO46hMog5RRs7VaKvCqD/QTgsfbF9krH8LZ0yek4CmRpMcitX+2FGvZ2YvRNvIxaLokbcc6jFisLYtDb1O2jnTE3i7EzEJghMrJhYPyGYZhGIYpGsyip1K5S/AufwYev4/FlYPrcfXQesB3ENDqCSF4lIWnegspeNBmJKrcmwh4elEbLlTwuKJKKSH4RSDCrGb80aaLmpR0QRt/NWkTP0SsFWImrr+at4HD8hmGYRiGKQrMoudqdnmRyuHi5au48NcnuLz+JWDpvcCpXUDfn4XgaW4WPGhwF86sHguPrHPw8TwFT4+rqhQbpMfidrObJxbhHrcrq8cS3TRhPa8sKmrbcOlHspVnC6PrEWnYsa4tAvxoOh2p29ch0t+0nXvcUvryGYZhGIYpKsyi53J2BZzIqoOL2V5y/sI1L1w7ngzcPt3s0tIEz+nl4ShfpS6qV7iIM1erS8FkGyFk/CPRVrmLPsd8zFJLHEOixR/zB6YpF1E24shysmQqItsutsyzhdH1BEvC+2B7zAvKjaWsOHI797ilLMtnGIZhGKaoMIsestZU9rggE7mssivWxNU+PwM1WuYSPJWadEe1rlNxqXEYsoRYIsFkk/RUbO8SgxdUje8XMcF+HIye9EWYv24EJkRYmUf826DLrD6WFhidJckcWGxrvVyYrEFvtEnDWuv9SHqj/4h1mL/IVdWTV/kMwzAMwxQmZtFDcTnenmdkIpdV1RsfB65cwNXlYbhS8xZcKVcdp5eNQPmKVVGxlh/Orn0Zl3ab/EYe8v+FgF8E1maTxeixHLeVyjNZZ1Tgsa31LCBB8hjweXaegqStS34p4+UzDMMwDFM4mEWPGQ9PVGj1KCqe3oqrP3bFmb1rcWrjdJxKuBdX9ixChbRPcPL7e3Fhq8lRJa1D5S7K6Vz4BaDtukhMVaIjPfYNnXuLAnzXYUeaml2yMGeZX18M7DILb9ix1PhFrEVaTBdsT3VshbG7nnR/TYBDPZIeizdmaUHN1vFGttCtY6R8hmEYhmEKFZ3oUfYa6pvHsyo863XAlevvg2eHcajkG4IKPs1Ro/OLyGoTgXL1bkH1HrGodl0bVC9/JmfbXPRG3OIRmNXH5H56DAN17i0/REzIWWbZBJxiayimxt+0TLPWyL5xTPP+kW1zu7808lgvPXU7xI7N61AyucJIuKg8GYu01iXhYr98hmEYhmGKCvPYW59FdcP/mq8Gbnge2VfOINv3IZzZ+jkq+d2LrBM7UOnwcmS1egpnVkaivHdTeHeMQPb+pTib+iMS9t+A4W/9Igt0DImKN9AmzTUxwTAMwzAM4ypmS0+r4DGmwUN3fIiLXn64dPpfXD6wCln//AKvikDmqf9k/z1eNzwh+/TJPncIZ4/vx6Z/q6N1zzGqFIZhGIZhmOKJ2dJD0EjrO5OmIytzvwwMJijA+RpMffgQ5MiqVO4iLmV7waN6c7TtOdKJEdbZ0sMwDMMwTNFgIXoYhmEYhmFKK7lbbzEMwzAMw5RCWPQwDMMwDFMmYNHDMAzDMEyZgGN6GIYxxKy/1EQZZcQNaoJhmBILix6GYQxBoufm+mqmjLH5CIsehikNsHuLYRiGYZgyAYsehmEYhmHKBCx6GIZhGIYpE+RP9KTHoEuXGBT5UJrF5TgYpjhTEv9O9sRgWEgMDqhZphDg9ylTinEseujh140UbkrhWFJYfxQ2998FMfZ2rD8udx5jruMQ10AtMoy9Y3P1ON15fs5gcS1cuA5Gcef5WRyzG+6fM7jtPNIR00V/Djmpi90/iEKGBMp1HrhFpWGzxHEVhmjR76OoRFKu+0z3S7yrfnbjc+wKtp4/tz2TDFPyyNvS03ka0rKz5VhcphSH3n6RWLcuEoUyfFau/a9DpL0dF+Rx6Y9jMdDH2ZeGvWNz9ZgL8x7oof2mTUNneT3Es6Cyiz0Fdf8KDT9ErlPHb77+pvl1dv8gCpMlmNx5PoLXZ+OPw5QWwz8tDWgeidmJkWis1ipwCnt/Gn4hGIj5SNQeqvREMTcQIXcX9XPDMIwe19xb9r4ezF+fDqwx7kK/P/8xWK/lyeMSX1lDRN76MfAviC/h3v0xYv1OiFe61XnnWBDSY7qoPJHomOwd24SXcq6lrbLUdjHhWr4HwmmBVp695YRFeSJp+3EnDvaf6xqYMnM/JxZl0HkX0v3LtV+BxfGpvCXhpnlH5yChAXW1fLoOBXwehK3jJezlK2zem3zTDs2aq0khh8dPFZJYs7zI33BMDjFZgSb/nI655mmxurWFxobF5sCsLmYr0i3XdcHcPZQryhk1Btv+GINQsi5Fv5SzHZVhXj8c67Q8sXzuC1q+2n++8UPIQGC+pnrSdgIDQ+CnnjG7z02u5dq9IktR7vvmdmwdk4Y8tnCE6yyM5ncLw5RQ8hY96oWtPfS2XqDyZe+/ExO1L+k08c0zxE0vUuv9yxcE7W8M2i3Wffmq1U2Ir+Ivcr6G3f0lnB7zOmZ1bg1/q+NIm7YNfeitIF4WQ8a0w2J1PRa3UwJJYnVsQ+uqfDtlEeIa7OyvznXxCMx63era2lye1zVyI7b2b/MaOHhOzGWQ9aiw7p/AYr927kHvON31s3cOVEn1gThhU75Icb0L9jzsPzP28hUOn09X6Y1uj87CaBISL+j2peePbWj2fjb++HoEvn94CKBNTzPmjmo8Yp2yItF27fDeTNqPHx56fxra3TINCSJ/9oM5f0+TO4t3x9em9RNe24bR2nEJgbS3l1aO8f3nhV/Ldli/03QllyychXYt9ffbznPj1xLt1AdUeuJ8tBsBLJSHmYadUM9ofhHPuMU7VDwb8iPR7rOsY/02tP5CLae/7T6FIMQYpgBxzb2lFplJ34VtmIU++j8qzRKSX6z3T6Zi2p/If6EwfSu6F4f//IFIs3EcfuJTr/OshVhCLzJ5PUwviN5xBtxA9sqiGf25+rfOLV5sLS/Ma2Rr/7augaPnpKCP1db9o3z9fh3dAw175yDdGYV0vTXsHW9e5+HK82mALlOVkOi10GRFsRY/twzEnWQJatFaiBTdtFxoAL3l5uFZwM5d9sXKnl1IE0Lo0btNs42DB6LdlwtN1h5dvlP7zwuyIMrrnI5d20agv/6i2n32e6P/iG3YJZRG2s526P9Ca2wj1UPrt2tpekbzi3gWLN6hmoC3e0w6Og9EiHYQdH5iCzpWhimpuObesoX1H1ZJivcwgv788vTR90acXLc/FsoXShF8HaXtVF9zRYWda1BUz4lT9y8PSvyzXsDP591xQvwsxv2ayHAHJHg662KG1k9zn1hxG0rALBECuF3/3M+EnedGfCdgZ9oSLNzWGv4UG7RNCCfx99vOQjUVECX+WWYY53CP6JEm2jGYWlg1u9xfTtAgmYVtVvDusjbZw+q85XGMEC+79BiES+c4VS5pmNZZvAj3mdYxY31s9soyzTqPjFvRBVYWNrauAZx8Tgr6/llj5B7Ye9ZlIKudcyuo87B3vHmdh617k9/nhESJ3rIjLS2tnQso/mOn2XJzIGk+tqlpM5p1SJBruW5bSfOW8P9jDL5U8Tpy/Uf7o4tptsDo3b8dxvQZk1uw2HtuBGSJw+uvYxvFAIl/NLtwIdDaLb4tBzg4JpssWYhZessPw5RA3GTpES/PtGnY1keZSSm5KzhS/FFaxhRRsJ3Y32LxcvE35Q3Z2S63y8cvEhNHmEy3Bdek1/K8/SlOIk687MTLRBycOl5/zB/4BSKbqk0I/bHNOaYy7ZTlMpbXSJqu1ZJ8ISrMLtIMTvfFgYXA1jXwc+I5KZT7Z42Re2DvHEzxO/p8GUZToOdh73jzOA+b90Ytc5XmIQje2cccHHxL5/kIft+JVlTNI/Eaxd2o7V9Oa2dpyRHLn2htClbOtZyWqXiiYd/k/D2NXz8NaQ+b1g99uR2mU2B1QSNdQFauLYmDZ5/uh/jjHKjUBM3O2ta6EMSFg2PS0L9/KWQtv1ZShilieMDRsgK1QFrYH9n5ElJlGLp+r7fOiQUqg/CAo2qmrEAfOEOAL1joMKUI98X0MMWOJbpm5PIrjQWPCywxNUPvsw3TvuCXP8MwTEmGLT0MwxiCLT1qhmGYEguLHoZhDEGipyzDoodhSj4emZmZLHoYhsmT1NRUNcUwTEkmICBATZU92NLDMIxk+fLl6Nmzp5rLzebNm8v0y5JhSgP08XLzzTerubKHx6lTp1j0MAyD33//XYqe06dPqxxL0tPTWfQwTAmHRI+fX9ltksGttxiGKZZcu3bNnBiGcR3+G8rBQvRUqVJFJoZhGH4fMAxT2shl6Tl06BA2bNig5hiGKcvw+4BhSh9nz57FxYsXceXKFWkFKkuhvblierQXXKdOneSvO7iWfQ0zfp2BT//8FJmVM+FT1weXLl5C5oFMNPJqhBe7voj+N/RXa7uX0rrvrKwslx9U6qzQ09NTzZUM1q9fj+TNW+R0NW8f3HRrZ3hkX5XzRrkGDyQlJkjrRbny5XDvffehYcOGaql7WD19OrZ++im8zpxBHR9xvy9fxoHMTHg1aoS7xo3DDf1df9auXr2KCxcuqDljeHl5oXz58mrOMbZievTvA2djevbu3YudO3fK6TZt2qBpU/1YLHmjN8mXK8eeeIZxFfpb0v6GtFaY9B6sXr06KleuLOsDqhfKAvkOZE5JSbH9QqJebMXP5auXMW3zNCw7twzBPYPxQKMHUFn8owt85MoRzN4+G/s27MPIliMR2TvStK1Byuq+SaFTheJdo4bcl0Tt14z1vI6TJ0+iWbNm8mE3ysF//8WmTX+Ic/ZAxUqVUK9BY1wj4aWWy33RPsUEnaP8pVzTf3K6nGc5/LN/Hy5fuiTX6dylC2rXrk1b5smC+fMxd+5ctGndBjd0uBl97htk+/rbgY4h61oWJo2NkEKAGPzQYLRtZ2ys7rzu91Uhbja/+y7OUQuoXr3QKOx+lK9aBUL34vLhwzg0ezbSxYvHQwitXhERpm2dJDk5WR57hQoVVI5j6Cvu+PHjuOOOO1SOY9wRyLx//340adJETq9YsQK9e/eW4nzJkiUIDg6W+f+KZ6mREIF5waKHYdyDtej5Y3My6tatjdatWqFmzZqoJN7pBfU3Ru+TK1lXcf78BWR7lEOlCp6oWNETtcR+Cxpb+7YQPZr//vz58/LXCGRsuHjpoqzE6KKZKryc9Nqy1zD7wGfoEtwFXXy6yAr7vpr34cDZA9jmsU1uM2//PBxMOoh5989Dl+bGx0Euq/s+d+6crDhaigeW9lVOt19C/tK8nFPzOrZt24YGDRqgatWqKidvli9bhlUrV+Hfg//irq7dMXDIE6hWuZJaKqBd6n5Nx2Tat9BJ4nw9cOb8Jcz6IAb/HNhPa6JP3z6486675LQ91q1diy1btiAtNQ2Nm7bAXUH3oJxQEp7lqeI3P7qOKV8OixZ+L75qquKffXtRRZw3CQJnRE9e93vZK6/g3zlzEHTnHajd4w5xZFeRnSW2u2w6SromR77+GolCAIXNm4dmnXMNkZsna8W16NOnj5ozxk8//YS78rjGGtaix/p9kJfo+fvvv+ULdM+ePfJ5byWeT82SduDAAezatUtO+/v748yZM9L64wgWPQzjHqxFz+ffJqJeHR+08m2C9jfdgFq1arn9b4z2uXfvPvx3LgsXr3oiu7wXPMqVF+/FC6jocRk+4pu7aZPrnfr4Noqjfec6S2d9+B6iMqOLJZOqEOSvSPtP7sc32+bhWttr8Knggx3nduCvY3+hSfUm8CrnhZTTKdh5bicCagYgMzATo78drUo1Rlnb95WrQMaxa0g/ehWZF8RDrPanr3zpOOSv1bx1chb6Wif3yuXLV5AtHijP8h44euoMjohEv0dPimlK/5l+D53MxCExfei/TPx7IhP/HD9N2kOUc02WQ+kaKYk8IHG34uefUa1aNTRo1Aj+Aa3h1zIQzfwCRGqZZ2ruL5KvP44fO4Qjhw6iQsWKht09ehzd75P79yNl/ny0FZfV+6brUffhR1A1sAnO/70DF06loOrdXVH5zjtRRQiGQCEo5o927lnTQ2LNKLSuK+eqx+j74ODBg/Jr8brrrkOXLl3Qo0cPOX358mUpgOrUqYPbb79dLqMXbEVxH0gIMQxT+JSv6IWsCjVx/FJF7NiVKmN83E3y1r9wKDMbl6s1Q/V6LVC/YSM0atQAtRs0Q/maLXD8SjVs37lLfsS7G+t9X6fbt4XooS86zQdvFKpAtcrAg5KYl78irUlfjVPVTuFKlSvYcHAD/jz4J7Yf2C7dDGfOn8HWf7fKvC1Ht8CjngdOeJ7AwdMHVcl5U9b2vXrXZXz3x0Us23FZrH/NtE8bSR6TjXwtEdqvUUj0kHq+XggPilXyFCKgeQMftBBJ+5WpYU3xWxO+MvnIXz+R1/w6H7EdKXBTOZSk+cQAga1zLAK0xcXLQr2b0xWH6RIpRTdA18ve/c5YvRrVhZipVvEyTu5bhRO7t6HWPUOQ1T0Q1UMfRd3Od2LP+p9xNmUr6ontyh8/jtNCJLjCxYuXpfDMC1qH1s0PzrwPyKJDlqBTp05JobX1773odP94NL/rGfh2G407B72CLdszZCxaZmamdM82btxYbV1MyJiBoKAZyFCzDFNayRIfndn0r1JNXK5QF1uFSHAnW7Yk45JHNWRVFwKnHMULiY+wrGs4f+mq2Ld4i1NGlbq4XLEe/vxzq9rKPVjvW1RVSD18HhsyTssP7VyWHgpYdCaIWatIZaVgldJOpOGiz0VcPHwR0fWi8WHAh5jdZTbqeNVB1+ZdMavdLJn38JWHce3yNVyqcgl//Wv84pe1fV/JykZ9n/JoWscT1SqLfalK2FwZi31TIvTThDZPadfhLHzw8zlMTzqPbf9kqTUco4keSmTpKV/eAxU9y5lTBZE8KYknih4ykif0gF0Rf1wkTi5dpoddbE9JK8eg6NGgYun61qhaWZe8rOYtU3WviqaN84n++lnf7+NCGNS4dAHlvS6iyuU0XEnoj32/fYe2j76ERrf3wYq3xqDamjdQ3nMfPMR5V7l0Cf/+5fxLZuPGjVKIXLggnq2Ll6SAIBGpQdOUR8toHVqXtskPzrwPyKpD1qXV65KRvu8YXokcjA8nj0TMpHCMGnYv1m/di7927JauLbL+5AsSKN7e8FYpaIaQKoUhWlgYMe7A6vk1pQgk2Vgmn203Q3UJiQ/5Tq1aF5W8awvh4x7xsX//AVwU35pnKzTEVfG+9/DIxnnx/j93iUTPNVwQ05evULMS2ne9At/3BfHhe/x8Ng5lesj9Woge8uFrfnyj6CsC7ctXS9lVxQu5Oq1kWjcvrlURlWHFHD9+XpTFfV8SN+2CEErifpqPwVYi7M1XqgDUE+KpUiUPHPjPmCWEKlTNLUVfCZezriL935MWKYN+D4pflXYfOok9h05h7+HT2HvklAwoy7pmKkO6t3QVtlFoC9q30XSFLpQb0K6drfvtJYSMN+2GDCvi99RZ8TLR/WV5VsyGV8NsVGxgmq8s1q8kkrOQiDl79pw5nTt3QbbmIoFjShdknn4d2sZVjL4P9u3bhx9//BH169eXoifyza/w3+nzaOnbGEGdW6FJozq4kOWJMxeu4tP436TYpZgy2oYsPs6ThIj2CQhNzpRWo8zMeASm7gZ8R2LFipHwVWsxTLGmYzSS5fOrpVjIUP/dqQiM1z3bUeFwt+7JEu8fqhUqiI/XSp4e4h1VFSdO/GdamE9OnDiOqx4VZSyNh3hjn7101SR2xC8JnktZFJoB8bHsgcoVaN/VCmTfFcqLV7J4/4vd4czl8jhxydRCLZelx+mYHpHMFYGqFLTUuUVnVBD/UAN4MP1BdNvYDd2WdcPhc4exNH0puv0m5kXeWxffkmVVqloJ19e+Xk4boSzu2yR6hGgQN5L2qyVC/2s9rc0TtC0Jp0tC7RvFwtJDFhwhKGp7VxbJS6XKqKXma1Gq7oWaMlU2pWqV5TZaGa5YeiRimwuXrlilLBt5pkRWJnfg6H773347rnl64qz4uz123BO1HpyHJl0eQOr3L+Don9+h27Mx8OkzCtlCP1wS5VSvLK7V9cafNQ0SNadPZ0pLyZkzZ+VvZqZl0i+jdZ1t4m6NkfcBLafgZGqJR/f18PHTOHT8DKpV9RLXJxsB13ujV6dmqFilJs5euCwDFymuh7rCd90SFYgAs7oJRmysqC40K4z8jUBEkOlLOSIpAzPM02J1a2uN9bwgY0aQ+Uvb2ztIVTqinPAoccxRaK99gVt8lWvrMUw+CI4FPc4mWiCgo5p0IxRfSXGZFSuUE8KjHCpW9Zbda7iDU6dO42r5qjh/JUuKq7MXrkmL/wWhPq6KD10SI+QdqFSA+74k6pp1qSfxya//YfbG89h0sBz2n62Ij3+/mP+YHlEDWFQE5kpW5AU362lqHkwfm7Qn6hqGWgtTDULT5HmgX6r7LkIGPrat2VbMGKQM7puEykVp6ck275Ow9Ws9rSXaVooeIaCMohc9ZKEh/+wFISguXBbiQiZTjA0JkJx4G8tEVpecMlwTPXStfWy4sey5udzl3hIXzu79bnLPPfJ+nxV/tx41fVDHry3+/nQMrix9B4djBuPElu+Qdd3tOLlH3m55v2u2zft+Uyu7pUuX4tdff5WDfdI1IyFDf9iUaNpa9Fgvp21oWyqDyqIyjWL0fUD7INcWJXKveZb3xL/HzkK8dySUf/5aJZy6XAnp//wnY3609cni5zzBCBk2G2EkNKSKscHGFATEiesTPwyzw8IBbXqKMdeU78gV4nqqr+34QERNp/34YmRcNDqqL/QVI3cjon0qxmnrJYciIZxdX4xBlHjOEdfKvaUnYykSEIpebjZflvcoJ4WP0Bzi1wOVymXLsAV3UF4UXJ5M3qK842ezpACR+aI6IstSBbHck4SPmJb7Lu/+fVN5ZG2vWaUc6lQlt9ZVZJ6/gvrVTFWyBc7G9FhUAKoSkDEmYrrS1YoY3GgwKnhXEJ+pYmUSAeLcNhzagL9P/m367KW8KyZT+nP+z4kDynVIdimL+9a7tzRo/9qvrUSQwNASiZ6LohznRE9OqyvNvfXviTOWSXzdH1TTB0+cxSFK/53FYUonz4ptTGJHK4fKdBY6fnqAjSayLrkDR/c7u3JlNBw0CNUqVMD+hONI6toBh76IwZnjwPbPs7DstsHY1PUReAr9QPe7SYMGsj+fvPjnn39ArSrIWkNuI2ryvW7dOtl0/ddf1+CXX37BqlUrsXKlKdE05dEyWoc6dKRtaFsqg8qiMp3ByPvglltukS2xjh07JvdVr1ZV7DlwBEvWpuLf/y5j495s/JxyGV7VvOF57ZKM5zly5Ig8lo4dXfuMDY5VQiMk0VRhWIufjqqiaBEg9qGblgsNoLfghM0GUlJzi5mMVKRAiS9K7ckKlIrdajHDOMSee8uMcuPGud9lK15dsjEKiY/Kopoqd+0iqlR1LrTFHtRtReXyWahSqZx432cLcSM+fERdQ5Yl2h/FfZLgIYuPF+37qvv3XbmiB5rUroKgVlXRvUUF1Kx0Wb7/Bt9UybKmpRcyJWehSkCrFPSVA339xtwUgy5Vu8CrhZfJuiEq+gd/eRBv7XjLJAjESVdpVQWDPAZh4HUDZXnOUNb2fe7iNWReoFgV25YeQj9NIoO+vilRhUSJxE7m+auyLKNki4eXytJEC1l6qlSsYJkqVYBXJU8x7Sl/K4tfLVGnUCRArorj1spxxdJDm5xX1iX6tUxZuRJZoNwFXVd797vD++/DW4gDXyGALqRfQMYaIXgSTNr2vLj2N4hUQ/xteQhx1CQhAVV79TIV6gCytFDZ9DdJTbwpZmb58kX48cfvER8/H/Pnz8O8eV9j7twvZaJpyqNltM6yZYlyG9qWyqCynHF3GX0fkGsrJCREChkSNG9EhmLvvgP4dvEGvPnFH9iUehKVKlXErr93Ifr5B+Q6JJBoG1/ffL7Og2NFZRGPYbMTc38luwoJHn3MUHK0fbGUZ8XFMK4gBI/3FAQkr8BIdyseAcXTUCwPJbL4XLtyUVqg3YHsm+vKBdSqWg4Na1aUvzWqeKK6EEHVKpVHVfFbRYgSiucx7ftCgey7fo0K8K7sIfdHeZfOn0ElocBydU5IPnwyaRu19lDfHPTlLysB9eWrVQaUiAvZF/DkriexuNZiZJ0SldGF8/DI8kDFuhXhk+WDFy69gNsv3I6WLVvK9Y1SlvY99pt/cfBkFo6cviwEQxZqV8lGw7o15LIciaOQGeJ/yrJD6AXGoeOZOHGBLBWeqOddAY1qVcDbDzruITfh+wQsSkyU07Vq10X3kFCcO2Orb4ec/Wi7pB/aP3WGuPzH+Th/5ozMHzBwAO7Jo/Knnpj/TP5TTgfe0B59Qweikq7vmZy9aeTOuSzu06QXI1HFy1SBU0wJVbzOdE5o5H5nC5GyKzwctZYuxUmyroj5K2LdekJ0XKtRAxdfeAEX7rjD0P2+ejULZ8+dhVdl8ouaoF6hc5+dY+jIAgMDTTOCCxcvoFrV6tLFZI2tzgn174O8OidcsGCBbIZOXdofPyXEz6yluOJRFVWre6N8VibeHTcQTRrUlmXSuTzwwANqS9uQMNYgq5oZEiXTA7BCC3ygefJgxQHi8uf8UlCztkw/TculW8okUCh+p31CKJJtba9frpVh3pYqpjAgPlMXg8EwBtA/lyrLjHzGSHS7T/DQ35L2N0SdEy74cTkaNLweLfxb4vq63jh0YA9uv914B7l5kbJjJypWEe+ZGtfjcla2+NDONossSuKlKdfzvHIaGbtS0Lmzce9SXljv+7LY96a9p3Hg+CU81aNh/sfeosrgKl1QevlbVQaE/jf1P3GxDy3A7ou7UTG7Im4T//r79ZcmqU2bNrkkPMrKvp/+4jAGdGmAS9TLrxAQnuVEIluhI+zUkBRUdu0aHZ/J3Ji85xReuMckoOzxfXw8En/8Sc25h4GDBqFXn95qzjZ60eNZoSLatLsBly+Sf9A4FSpVxqb1v5p7/nRV9Bi93/+Jl8qVMWPwb716yBaCB7fdhpvE9fNcvNjw/c4SoueauE9eSqgR7733HrZv367mjNG2bVs8++yzak6IHiG8SfCUL0/mR0vyM/YWteCijiS1nl1J+NBwGdIFKJJ2fejZpVgeEj70VaYNWWELu6KHAoqD2iPKHAPdEdFUQUAnarQKxZboEdOiALRXBXQcNky8KQMsttsd4Q3yalksVxVUklrWMToZK3otFRVUFHIOJdokjtQsw9jEgeiRIjvn4ZbIZy0fCii36ElCo+uvlz0ynz55HJ1u6yg7CaT3HNVL7iAtLQ1VatRGVZ+6OHuRLPum+CFCxvJcO4eUbclof9ON0kpakPumupC6WaFjyPfYW5VEBUIvZ+3Fpn/B2fsl9NMEteJwWniUoX0//eUxNK5fR/bETA8wBX9VqWw/SJc6EKQbbbq5pgntRsug4mviD0AcS9WK5XDkxAnMeLSuWmqb+O++w08//Kjm3MOgBx9E776Oh1XQix6qMPUWK2eg+6Phkugp5Pt95cplVKxYySzUiFdeeQV//mm6FgTFkZDrSg8JCnqBaNx000149dVX1Zy49xcviHWuSEFiTX7H3qIgaXKj/vfff9IFSiZrHx8fuYzGeyP3F0G9M5PwuvHGG+W8PeyLHoZhnMFa9Pzw4yLUq1cX9cWHWYsWzWR8HfV6T+8PGpdRGz4mv1C/OeXEB1AVsi5XqCReiOWQnXUFVy5fxOlTJ2ULTzoesioX1r4t3iRGffh66KWuTxratL1fuglaQKv+5eYMVJY+ETTIoTat/01KSjLPF9S+CW3a3q+r+67hRXEyFVFFpKpeleDlJaaF6LGVvCpXEL/aOhVMMTUVy6NypQrSOkQVTlWvyqhK64j1vUXZeUFig47XnclZAUPXkP5wXUn5hfatTxratL1fOk+XnjXxB0qtrlavXm1OJDjCwsLM6bbbbpPNvvWJ8vTr0Db6MjbTSPW643eEs++DdkJAUrP1u+++W4onGnxUgwKdKY8Sfc3lJXgYhik4rly5KDuUbdLkehn3R+5m+uihdxRZbXfvdk84fpMmjVGzhjeuCpGTeeIITh07iIvnM2VzdT/f5vLDqLD3ne+YHgqOpIOllzxVLvqXvnUFQL/08qevQVJ1WiXgUd4Tf+9IcdraYr1vumDR0dG455575Iu1W7duMo9U7FdffYWgoCCEhoa6Zd9kKSCBRV/aFMfQunVrGbNCrWvITEf9pFCX/OReoFY09913n1zu6r6nLj2LWrXr4NxFU+VZyTMbVew1xxZ3lHpDpn9yWqzvKYTOpStXcP5ilqhPxVe+uifUT8KZ0//hhV7V5Lw9Fnw7HwsTEtSciTHPPyfdGRrWIkab/2bePKz8eaWcJitAoBpocvDDDyGkXz85bQ+9pUfjzLmzsnKl8vX71OZlupYtm2nTs0Y0a9oUzZs3l9OuWHoK+zmnUYGrVPGSAtVdbNv2l3hO24A6MqSyrclvTI81GRkZ5s4Hm4rrT6LMGbTrRrhDuDJMWYX+lrS/IbKszF08Fzc2vVG+ixo1aiSXxcbGyr9T+rsnIVSjRg2LeEBnSchMQN/qfVHRw3Y9tezsMtzmdRsqX6ksXffu3Lcj8h3To1UGWkVgXQnop6kSoNYjJAjI3E0v9vKenjh36TIaX1fPaX+e9b6pZdLkyZNlDAON+EyJBkIcM2aMFENPPfWUXM8d+/70009l6xPaJ7VEIZcCCR8SPbTP4OBg2bU2CSCqbOlYevfu7fK+41ZfQI2aPriY5SHPuTKJniq5XRQE6QBT5U+/ouIQE9RM/dz5K0D5CuIa0MNPt90D5amb7jOnEd41dyWoh4TL99/FqzkTL7w4ToqYfapio/MkP7EeOtZlS5fil1Wr5PyRo0fRrElTOf3IkEdxrxCDjrAWPXT/aDsjJC1PQpr4A6drkZqehls63Czz8yN6XHnOz507L+OB6H77NRVfHwbuNw0lQa4ozQ11/PhxaamhY7AQdyoR1sdDiWJraJR1cint3btHvOAay/OvrB8hX5GfmJ6CgM5VQ3thMwzjPNq7iyDRMy5hHIYEDDGLHhIb9KH28ccfyzyyzLZo0UJ+qN98883md4tRnjz0JL7L/A77/PeharmqKjeHF4+8iC9OfYHfmv+GFhVbyI9Dd+07L3K9SejlZlTwaMiDsjow/YHSNF1QqmiOHTuO7eJrd784MYpZOH/pEmrXqO606NDQ75usLlRJUBwBnQMFjdKozvSSpxt+SVQ67to3WY2+/vprLBEVOvU1Qvsiy0+fPqYYlTZt2kjfJAkB6nL/xIkT+dq3dxVPcR7lUL2qB2pUo1QONaqWh49Vorwa1ETQ/FsOVSsDnh5X4e1dSWxXHt6iDG+RT7+VK4tpUXZe0B8NVeb6RJVtyvbtWPh9gkw7d/5tXpceYtOwCWflfb9KzdVFIguMtr2+UjMK3W/a7q+tf2HJosUyHfz3oMyzTtoTSNtU8LQtEJ1B/6xpyDwFTeuf823bU5CWniGOhcaeuYSG9eoYvt9UzvHj/0kBQumvv/7CPCE8o6KiZBo/fjxeeuklTJgwARMnTpSJpilRPi2nNHfuXLmtqZxMKZ6uXTPed5Er7wOGYYo3d1e9W03lQPUnGQbIM0JucrLw0kftb7/9Jt9HzvBu/XfRumJrNWei295uOHvN1OL35Xovo3OVznKacOe+88JC9JDao+QK9OrXVwCEfp4OnL58yc9/fcPrEXT33eLL94KolKuiUT4Dl/T7poqYTOoUw0OWGPolKwxZZP744w+37Zsq8+HDh+OsOCf6qr/++uulO4vcLtqx0C9VvrQuVTj52XcNL1MPml6VhFCpVA4VRR1eoTy5rXKnCuWzRSWfjYoikSXnavY1VK5CsT7l5Lb6VK6cEFCi7LyggUKzxDXUJ7rWMl+JGAq+1YSOPpEIMAsd8Rxo27s09payahw9cgR79uyRiZ4rZ2l3ww1qyjn0z5qGvee8QYPr0LdPb1wRIqNezVpOP2uHDx+WYpkSQc/YnXfehYULF2HJkuVCZFPnhL9i9eq1MtE05dEyWofWpW0IKqN69eo4dIiCiS2P3x75eR8wDFN8uZptW0iQceCxxx6ToqNfv36yc1N6d6xatUp+yBqFrDvlPSxd82HeYfCUndaJd4tHFfEhbvmx7a5950Wu2o58+JpJ2xAOKgBCq/hJdFDX+OQKqlW7Fv5ITpYd2lGwkcvY2NeQIUPkRSPxQVYXUo/0dXvPPb1kvrv2XcPHR7bE6d+/v/Q/kh+SrD9E3759pXKleB5qkkuVO5kQ87Pv6pXL44rWz56o96mDwZNnL+VKpyidu4TT4jdT/NLotignHi55rXJXdlQmlZ0XZB24QsJGl6iCv5IlBIyYpkTixlrwULqkRgSnRG4e2rZbjx5u63rcFQ7ogmwNYeNZ02P9nNPfUe1atfH75j9QvUplp+83uUWpldX+/f/KRC4yKtvfPwDNm1N8UjM0a0a/TcVvE5lM06ZlNO3n5y+3oW21cmieOgo0itPvA4Zhij0LMheoqdzQu4waQVD3GFS/kVub6m3yZFCzdlcZVWsUKpfLaY1qi4Latx4L0ePS2FsGoK9zqiDJIuJdsyYy9u1DNS8v8WJuodZwHxQMRbEzmi+QxAYJEmre2+n22922b+qFltSoFmxFlQM1DyZI7FAsBbm1yJ1BlaFvQEC+9l3fpzw8ymXj3EXqaZgGb/PAxaxy9tPVcrhwtbxcj4atOC9HuhXbWiWKk6Wy84JchHorDyUSNCRkNLKEgrIWPJT0lh56DmjbA+JaOONmcRc3KAsPuXushUt+0T/nXlW8kL5vL2pUrebS/aZWdj16dBUCupdMJJromevevRvq1KklUm35W7t2TYukX0br0ja0rVYOlWk0OLqg3gcMwxQt/2b9q6bsQw2CqCFQ9+7dZaMEsjwvW7ZMup1cYffl3XYtTNa4e996cll6CsKHr1Uu5cTLtkIlL9SsVl1aQAqDwtr3iBEjzIFiGu7ct7fHSVS/sAdeZzLcmmqKB5HKzouwAQPQuk0bs3ihRIKmU+fOiJrwkgxqvuGmG3MJHqo4ybpwlQSPSCR0aFvqb4bEQV7Uq1dPTZnQ3FsNGjZAy1atZPL2ri7zjEBuJ2pafe9996Kxm58D7X5T54WeXtVQ16em2541EtV169YVgjpQCviqVatIiw2Ja1Nng+XlNOXRMlqHxDdtQ9u6Csf0MEzp464qd6kpx9xxxx3yvUaNdCjA+OjRo/J9nhfjj4zHP1n/4OVjL8tfosPuDjibbYrpiT4ejZ2XdmLq8anYcWmHzLPG1X3nRa4m6wRVVEbZsWNHri9H7eWvQRXV5StZOHnmLFr6NpcdIrmDsrTvS5cuyYBULb7DHdDxUpNzsn6QOyUvaBDLiS9NkE4yqmBvua0jvCpVli4rEjMU33NV/GrCRIMCjffu2SOn/zt1EnVr15EB5/f2vw8jn3lG5juChr9Yt3admgMefvQRNeWYlSt+li0ViN1i/zeK86RzPnL0CHr36YP7779fLjOCM/f7xOlMtPb3dcuzprnM6KuHBhV98sknpTvVCBRjFhcXhx49ekgLqNZDsj1sNVkntPeBvdZbNM7WKWU5k9dEu/2Wl8cUDyX+ZasV6LmpXq0afFs0k/PW0LlrODpuhmEcQ39L2t8QvROXL18uvSD61lvW7zc9ZPGlbbp27Wr2aDjiYNZBNQXUKV9HNlunvOs8r0M58e9w1mGIWkMur1W+Fip72Hd7ObvvvMh3Pz1M2YJcVQT9gVDArr6fHnuQGCDRRlD34ORyISjuyWhlRs3WyadLZZHgshYctpCuNGlduoYVP69A7169Ua58ObRq1Uq28DNSRlFDx0+ihxJdO2rdQOKFzo3Oi66HJg7oWtI50S/dH9qGApnpetM2lOja2cPVfnp69RsgRE+mKN9Tlq/th1JFOV3enEe/dFwH9u7G6TOZ4jgrYMNvpj6crGHRwzDuIb+ih6CPH+1DqLBx577z3U8PwzClA1f76ekafK8UwzmCxyRyKugEkCaIqBXj4SNHkS1EW7bQnOXKlcf61UtVSZaw6GEY9+AO0VNayCV6GIYpm9gSPXrsiZ53Ymbi0YcGSAtOtapVUZ6GOhFihqxONKo79ZF0/MQJ7N69BzR6/JUrWfAUIsi7ejXs+Dsdw4fadley6GEY98CiJwd+kzAMky+qVa+KipUqIiMjHRcvX5bWHepxnL6mkv/8U/aGfenyFRk43rw5jRSdjebNmuOmm9rLQQ8ZhmEKCxY9DMPkiysXqQuDLGRdvSrEzUWcO2cagoOGAZn/zTeY8f4H2C0EUeVKNGp8Jdmcv1rVKuLr8youX87p8sAYGZgR5C1bp1mnoBkZah2GKeZkzEBQrmc4AklyYRIi9PkRplzGPXgsW7aM3VsMw+QJdfhpy7315pQYPDTofuzYsR2+fn6oUaMmRa/jyy8/x5/JyTKI/eGHH8Udd94hTew7/96BFs1boHo1byxasgyDB4WpkizJ071FFUc4ELdiJMh+xDAlBkfPblIEIhCL2GCaIZEvV8TIfDzk1u4tGueKurOgLjXoVxuqqSzAMT0MwxjCXkzPa5On4rFHBwvRkyJ7ga7hXQPlxQuUWsqtW78OdWrVlh00VvaqLON8aCDepk2boHp1b3y/MBH/e+whVZIlToke60qE5h9bi4uVb8fgwChEzZZbYFh8pqkyoeXto7BR5nZEdHL+KhWGcQpHoscCsvokIiQzFlIDuQjH9OTAlh6GYQxhz9Lzxlvv4vFhQ7B9+zbxEg1AjRo+8gVKL9mtf21Fi2bN4VOzpmxeT0OP/L5pI5pc3xi169TBdwk/4n9DClD0/JWImzWhI76gvacEIHlFAKbrKxLDFRDDuAl65syiW2MY4s3ihiw87RG1UZ/nOix6cpCih0YCZxiGcQQN3GtL9Ex+exrCHx+Kv7ZtRevWbVCTRI9neXiW90Tyn1vg28IXPj41cS37Gn779TfMmzdX9j80ZMhjSM3Yh2FDBquSLHGXpedzfR6tEweEO6xwGKaAsX5e7UKWnikIyKclkkVPDjbeJAzDMMahXpavXL6CbX9tw/fx8Thy5Ihspq710UPxAnLIDCGCNm/+Q46fQ4MIujI6vtvoGI1kIeJIyJkSCx6mOBKMkGEbkbpbzTL5hkUPwzD5ZsKEl5Dw/fdI/Okn7N27Vw41kZ1Nw5OYBmGlISdoHIrIyDH43/DhYv2Jctw2bUgKt7AxFVrdkLE0wcqSo8M3AIEbozCdG8UwxZCMGRHIaYiYhMTZHRHg/rG5yywsehiGyRckXF6aMAEh/fohODhYDhJLHRVevnwFWVlXcOnyJVy+dFlag8it5ePjjesbNzKN95bjwcofviMRF52CMNXMNzw1EB3VotwEIzY5GilhumbBQTPADd6Z4oDQ5Ihqrz2bYUA8B9m7E47pYRgmTx5+5FF8OHOGzZieZ8dNxMCw/vDwoHHRKsqWW6ZemcvhGo2VpoKaxQrSFZZ1Ncs0L5b9tHgZno8cqUqyJM+YHoZhDMExPTmUbNGzbw4GvgBMnT8UTVUWwzDux5Ho+WnRMqRlWAYd0AtWjqoufuW0mJGSR5sW/yvnUQ7X1a+Hfn3vMW1kBYsehnEPLHpyyP0mISEhXmwBE1erDBOrJ4q8gXOwT83ngrZztFyPtg9dstodwzAlhJA+PfHk44/h0cEP4P57eyO4+x3odMuNaNfGH37NGqFFkwZo7d8cHW5sgzs63YxeQd3Een3w8INhcluGYZjCwvbn002DMGjXDMzRFIwQKTN23YSb1KxNmg7FfGcsLjeNR5JQnKQ6U5PGY9cTLHwYprhBFh5KjiCrDX0pUs+uzZo1Q7t27eSo7D169ECfPn1komnKo2W0Dq1L29C2DMMwhYUdm7EvgvoAi1eZVM/qTyajpXhxaeybM1BnpRloEkeapUf9ziHLkFErDgkmEj4zlKXIwhI0ETmbr8ZEc74oV988Y/VEkaeOhWEYhmEYxgq7jvJmQ0ei5eRPsFpaecbj8e5qgaDp0PkmCw2lj1ti8idWqubPycgI0pYPwreamHFE0+Zo+WcG9pKwCRYi62PT9knjd+EJqZr2Yc7AJwCVT+l1rXkGiSS5aD6GcnAPw7iVr7/6UiaGYZiSjl3RA3RF0KBv8QQJkJFWbiu9JeaJb4FdeyxFzU1CJHVV0818HbvFrNm3B7t02zft3gc3fbtCiK9VWAxduRpCYAUHZ2Bk6uviiBmGYRiGYWzjQPQI2fP4eCFYBiFIryZI8AQvRp8kZXFJonXcgBQ7vmimZg0jBNLHZmsQwzAMwzCMbRyKHhlrY8uCclMfdFemn32rFuNP02Q+UC4tsihJN9dkaB4zWf6gIHRt2h19kJOvp9nQ+fgYT2AgB/QwjNsxEszMMAxTEnAsemwhhNDIlpMRrNxbL2S0dM3SQ24pzUUWMAO+Sal4XaqrrnhdteaiZcGTW+JjuaAphk7NyaekD2Tu+vrHaDk5mIUPw7gRLZ6HY3oYhikNcI/MDMMYwt4o69nZ+Rs/y16zde6ckGHcA3dOmAO/SRiGyRdXrmThzJlzcrytEydO2kzacuvfDKuenBmGYQoSFj0Mw+QLGkX9xInj4gsyDRcvXrSZtOXWv7QtwzBMYSHdW2qaYRjGLrVr17bp3jp79iwOHz6q5pzj8uWLaNOmjZqzhN1bLpAxA0HhQNyKkXB5YG5ny3DHPpkChd1bOXicOnWKRQ/DMHmSnp5uJ6YH8PauruZyOH/pKqb+lIZXHmilcnLzzz//okYNbzVniV3Rk6uSzcAMyngpFAlvuqnypX20j4K+0/dh8ZmIDVYz9nBFMNjbjytiwpVtrMiYEYRwxGFFr6UWx9YxOhkrRtoo1Q37NIx+X4W5X3dDx25138WdR3xmLPSPWFKEN8JSopGcz3Nk0ZMDfz4xDON2VqYcQ7sXfkb0D7vw9W8HcPjURbXEDfj2gpA3WJqh5jOWirlQ9Oo+EivcWQF2FJVNZqYM4M5MjkZKmDciktQyd2JvP75uPh+D7E4FQnvtRkR7cVWT1XFlxiMwtZjFXxXR9XEb+vsuU27BM0UIIW3gAcY9uN3Sc+TIETXFMExp4syZM4YsPecuXcUD7/2OpVtN74JyHh6o4OmBb0Z3RP9bG8g8DZcsPQKzNYIsD0kRCEodbbJM6K0A5i/pjohOXoGRsLIStE/FOFnRkKVoOgJW6CodW1YEXZ7YAO2jzDYQU/m+VE57aNlkGYkTR5l7PTVLONpPHBBua39UWcplqQjEbMxW2dJC1MLYMaaO06xWSYjwnoIA83HRfCJCMkOQKH8tK2ITtE6Y2LOJYR8IofaFEEqBUYhSmRbWKpv3IefYh8UnI2CK6bpp29H9zfP6Pv88sKa2unZWx2TEKleU2LrvOiysbQ7WMwpbenIoENFj68XIMEzJZvPmzYbdW5T35a/7Mem7nUh5Jwgp/2TirR9SEfd4e9SuXlGt5broIaHjnRiCTFGz0RdxYoi+wg/AdH2Fba5gcvJbiEplemogEBIrKkdRYQalYrS+YrFZKWmCwEoI6I7FYWWmX0/D0X6SAzCFlpHAMQs0KiYCGC2WSUuMEitUdhgQr21jvX/9vu1NW60nXSukIobF647ZWjRRljgHIWwCNaFBZUwJQLK9+yDPRx37brFuWIpJ1NC03M7Bseuvl3m6F5ZaH1NxR10zTdaZMLm36Nk0C3r9+aq1XMFa9MTHx6NBgwZo0aKF/PXy8ip77i0SK+5IDMOUNXJ/Nx05fRFD7mqCPyZ3R6UK5XBLi5rS0nP6whW1hoaL31zBIRg2O1HIgwykpgxDiL6yy0hFivjmD/P2FmJMJKpcNqZit6h6Q4alIDWDXDiBCBHCISUxybR+YIBzlQpVRlr5pAxSUsWR2MDoeo7wDZBWkTDvCHG+4tRjlYjoGIpe2kHT9RBnnbpfzRP29m2+dkJPJM7GMN3F088Hxyq3S0iiqQzyuUlXYjRGW4uLjrq8FgGQLhm790GgHTutq5+mZYQz183eMRV3bLq3MrA0YSM2RrXXXbMotA+a4fxz44C6detKsdOsWTP4+fnJj5myksyWHhIs9evXlxckP1A5VDDDMKULe5aea9eyc1lrJs7fgaeCW6BhzcqI/PwvBLWrh5AO16mlORw48A98fGqoOUscWnoESRFBSA0JRUJiAFborQA6t5C1kCG3wfSAccAUsuyQhWA6aDYRZPFRKxFaWfoy9OXrrSz6da2n7a0nCxQ4yst1HpoLZ5gNiw4tm4KAH1Qwt6NjpLWldSweCNNbrsiKI1cybWOBlfXJ0TnYPX6Ffn1b085cX219Lc+0h+KP/jxUlk2MrpcH1paeCa+8gRo+NYX4qS9+fVChQkWbf2OlERY9DMMYwhnR83v6SQS98Rua1a2CE2cu49Cpi3i8RzO892g7VPfyVGvlT/RIt0eYkAD6+BFZQZBbhXw9NtwdYp2I8ASkhJrcBxkzIjA9FQgYHWtZ0eeqbEyCQ5api5uhZTL+JCHU5Jah7TRXlFUZFuvJMgVG9iMq9elLeyHWpABMwsS6pZrmUtIEgJUQyLVveZxRgL5Flv5YaHq6EpMWy2y4kqzPwTxv5z5Y78d62tGx0zq5rm8JdW/pztEuRtfLA2vRs2bVD2jcuCFat/JD4+sbomrVMujeYhiGcY3cLqrb/Gril5fvxO0ta+OqEEUEubwuXLHujNBF9xYhXTpWri1JMGJVKyjpIqCkuQd8hWjbSK2TTFUIzc5OCchxE+kht4K2vQz2VZWq70iMC8xZFp4amOOWoWXDTC6dICFU7K6nx95+NOggNXeHd3skCME2sonI129H2kJfMTo6RoJawHXsaL4ORMbSBLowpjJoeUqY2qdIZHmJo/J9MTLO8tpGrJWb28DBfXCE0ev79QktM/cxke+OYWzAlh6GYQxhz9Jz9eo1u9Ya4olZyejkXwv/69YU1sNs7d9/ADVr+qg5S/K09JRl8msBMAcb52xvDggvKdYSxjBs6cmB3yQMw+SL7OxrQrzst5vGBdVCsK8HDhzIvezs2TOqFKYwkQHL4/SCKQmJs21ZzRimdMGWHoZhDGHP0lNQsKWHYdwDW3py4DcJwzAMwzB50rBpJzWVP4qyHBY9DMMwDMPkycF9G9RU/ijKclj0MAzDMAxTJijSmJ6XXnpJTTFMyeTNN99UU5Z8//33aqr00LRpU47pYZgSCMf05GBQ9OzGzOAOSB17CjHBpunxm4BbJ29B0tMt1DomnBU99ioNhinuOHp+SfTccsstaq50cOzYMRY9DFMCYdGTg8E3SQZSNw1FX2rOmDQd4wMX4NSpBQgcPx3cBxTDMAzDMCUBpz+fkhbNwa0B1LuDLwJuTUGaHD2OYRiGYRimeGNQ9AQjZgEwwMcHA+YMxVhyaZHFB6HoZendYhiGYRiGKZYYt/QEx+DUqVMixZhG5KX5pKfBmodhGIZhmJKAQdGThEifSKv4HQpots4rARxfg5kz1+C4mmWYUsXeTxEa+in2qlmGYRgmB6djeixxY0wPiZFJkzBJpZlrioEs2RlvPh6Z4neqBSUMFnqlk1VRshm5OUWtUguYXNAAnUZG+NbjyjaFQXE9LoYpAeQhesia4wMfnwGYI/5RTI+POXXA+MCxsGqx7iI7Ef/BdrR9RhMYg1D/2DG1rGg4vmYmJn0LDNKJnkHYIY6UYYqevZ+GoulQYM6+fdin0hwsR5mSPTRSuLd3ToooAruzswKE1tcfs0i5DtvV82IxVHKw8Rx4e0eYPCcWy4Iwg2+oW8lD9LTA00kUx2MnxbhzSN76qFtHTaI1wsJamyYtLEAzoRmApCixzlcWjTXxlBevBIoQVOb1JiE+VWZih1xH5eVSMsexYzvQ45kwcSQ5tA5T8xbHpPYj9x2P+Jlamcexxjyde7nFfu2Wp52Lo/Vtnbt+fXEc81fi6NGV+EDkkQXN4tqxBagEshc/JwIvr45Gd5VDdI+2nJeuLrMlKBSfKp+XFEzW+cot9mkU5UUVe/GUMSMI3mFAfGYmMlWKR2LJcLd3jEaydtzJ0UgJyxE++Tov35FYsUI/cjpTrNE/BzLFIlhI1hnhCQhNVnnxgYgKZyHrTgy6t0wWn0j9X15SJHyCZ4ol7qA12rTbhm+pErZQIGQBOobuWgX9TFtsn2+qpOvc9XROxT2oPlauVtuJyv1YG8ongULCQ5przOuGUd9q5nVo23bYtsqq4j++A9uP6kWYHjqmlaivynymxxF8qx3z0SOoO1CV+e18QJvWyteWa/v9lgSOo/JsHaf9a2J7/Tq4a2AP1KvXA8+I/Kfb7MD8lfXNFqxB9Y+haG1qjNPs/RmJW1qhRTM1b5NViOqajtGaJWh1CBLHmGJ9mg1PMFuH9s1phdfilMTZ8hrSe1K+lXgqdmRgaQIQnUyVRA7BsaZ5KRwcfiknIcK8XAiOL6wsJDYsJrbLpAoqChs3RqG9yA+iTGe/0kmokPCZQvtzfF6WpGJ6kNV+dMdt7xpY5LNVqPjTIgAd1STjHgyKHl3nhBrBozEZCVjqppie1mGqshaVsvyliv/4MRyBEkOUhDg4elRV0nprx7fbgCPHTBW/qNy7auYZEi/QzWvo16lbF/XUpAX16qKumrSAjkm3fZ02bVFvm3J71WuLNiSUqEz9NC0jtDyidRu0E2d3bJej8mwcp6NrYuS86tRFfbm9yaJktl4xJYsOfmiuJm2ydzf+xlwM1Sw6XV/Dli3p2COX6SxAQ+cCf+82BT53eBnhxVvtmMhYioSNgZDdhdnAd+SKnK9n+lKerv9aE0IlSJpSzOvE3q4WOcB2mb4YGReNjuqLfcXI3Yhon4px2nrJoUgw8pXuG4DAjanYncd5WbAxBQFxpv0IzZTLGmDzeIUoCo8KNFuR4gPFPtX6TBGgxHKOOCX3lnimVoxDanuV1z4BoXFsvXMnBkUPdUQ4B4v0747d4g90UyD83d1mvXWYqMwHoZ2u4icLhazgZRKVNAkefQzQMz1sV/CuQsLg6HbssDD/FCNsXRO1KG9aI0xu0wY75K/mBmRKDM1aoNWWRPycVxMtIWJWaxYdmaLRnQRP10SErFZ5q19GB7V6iaJjgP3uMvTWlrDZQEpqjiAgYYFojM5tOnGMozI1MlKRgtkI09ZrT1YgJ4WFo/PS0zEUvVRN6NsrFB2t92PreElcyeMzxY7YtiAxhYZN9xaFdGmiPBnRHTdaiXYmvxgUPRTbI3snzAlk7iAU6BbVZ09+IRGjd2tJa0pd1JXiYyU0z5UFOqvJ8R3bcdQ0aUmdNmgLO9s7pDW69gBWfmApCHbGi3mrY5L7btfGeWvJzh3YRufQ0snyHF0TR+gsZPEyCIjEzzPoUe8IjhVXccfYoTvCXwZe62oZe7MqSjcvhdFr0DxXFnQIwd3KNbb350RsMU2WHKRlJAFLbZlQqLKnr2MtJiI5Ov/uAWfKtFOROYTEEokdR+flDHaPNxix8phCkCgFkQqcZYoP4t5NSdFEOVl9hPBJmZK3m5QxjEHRQwQjxiKQOclNLbcEJE6OfJtjuSArzsC7UIcq5md64Mi3Kp8SBd7WuQvd65sCcylv/rH6diw9pngW/fZaIHNeUMyQjK9R21H6FiRGLI/pA4qP0YKu80KIFe2YZcuwp3OfY97l2bkmaqlN6HqpmKmZOzxJzaltP8D2tgNxl83YJaY4Q3E5q1/+O8d9JdJQ9NTF4nRH9OqX8ffQnOVNqf+eZsMxutVr6KryxqS3KoGWnmCMJpdOe8tKOylCzeusIBlLE7DRNGnCtxdCEYVcH886S0mubQhHZWrbStFio2yHJCGifRQCx5ELI4/zsoM8nmEhluLK1vGKCjVC1p4kfsiKkIJUrkyLF9bPkDMuT8YQBkdZF+yeieAO47EJt2LyFiF4MiLh83YAtlj1ysyjrNuBrFkU2yyFDlMa4FHWC5a8RlmnoNz2UTr5MSwembHBQiR4gzw6RMdhw4CUAMTFAeHhQBy1bpKWkCizcBkWn4nRqTll2dpmt60yVUspbX8do5OxotdSi7Kl5Uffospq32IFRCevwEhdpWbvvMxYl6Htg/IdHm8ApnuHQWWbjle/Y6bw0N2rXHfA4v7mfj5cwV2jrDds2gkH921Qc65TlOUYFD3UeovuUBL8pwcjbTRZeXLy9BYfFj12YNFT6mDRU7DkJXoYhjGGu0RPacDgm4RabxVA0HJZos5deJoFD8MwDMMUGQZFTzD6DrVqvcWjrDMMwzAMU4IwHtMjXVwdMH6TmsVQLNBGXNfhrHuLYUoy7N4qONi9xTDugd1bOTgheozhjOhhmNIKiZ7SBrX2YtHDMCUPFj055CF6khDpswh9T/XFIjnoqB2GLjCPw8Wih2FKJ5s3b2bRwzAlEBY9OeTxJqG+eTQXFrmz9P30aGkBhs5Z5LAfCYZhGIZhmKLG4OeTXvxY42gZwzAMwzBM8cAJmzG5unTDUPgEYyaPVscwDMMwTAnBoOihllsDgAU6t9aWUCR0iGS3FsMwDMMwJQKDooc6JxyKvnofVoteCL01BWls7WEYhmEYpgTgxDAUHZA69hRUIy01FlcqxlrF8zjTeqs0NutlmNIKN1lnmJIJt97KwYl+eiimR99sPf+dE5bGDtwYprTCnRMyTMmERU8OTrxJqJWWLqaHW2wxDFOcoNGpg2YgQ80yDMNYY1D0kJWHg5YZhikmkMDx9oa3SkEzCljquENQ2StDO5cIyzdsUoTIYxFXOrF6fk0pQtWxSYiwyA9CQT/eZQmDoicYoyenWA44yjAMUySISqF9AkKTM5GZSSkegaklvEVFx2EYljIlp3ITleKUlI7oqGaZUkjHaCTL51dLsTrvyTDEm/NXYKSvymbyjWFLz/TxmzBngL6fHkps/WEYpigIRIC5IghGbGxOdbGULCTqK9lsPLH4slZf1HrLi1yufWlnYEaQNu2YjBlB5n3pv8gt8uU+RJnhUdi4MQrtRV5uy1QAQkKBhKWm/KTpUQgMFRkaFsfvaD8G8vSWA4tyc9Z3Zn8MU5IwbOmxjOcppLievZ8iNPRT7FWzDMMw9D4KGTYbYVTxWrmEIERFaoj6Qo4fhtlTqGImy5AQEfGm/OToFITRdr4BCNyYCrIRZSxNQOAwIFEWtxupQoS0oMk88B25Qn2N0/4CETVdFCAEQ3hUoPlLPT6Q9uGLkXHR6Ki+7lfY+HRvMXIcAqOmI0lsPyUlGqN7qQXy+FMxTttPcigSwsV52dqPzX3bOU6r65KZLI7P2f3J9RmXUALYLCLNoptQz7dIBe66dYKGTTupqfxRlOXkLXqoaXpRW3ZY/DAMoyM4VlXIIYmmCkMTP0JUjNa+xFoEmCrxjFSk6PJ9e4Wi4+xE8S4j8ZSCVFGn7E4NRMjoAKSQ6qH1AwOETDGAEAJmi0jYbCAlFRkkpmSlZarEgmP1bgtHKDFHQmTcyJz90/HoKkFvsXwjiTVb+7G3b1vHaXVdzDizP9MWjCvYdW8FI9acFy+EcHiOZa6IObhvg5rKH0VZTh6iZzdmho9HoNYT8wJgQCQ97oVMs+FISBiOZmqWYRhGEhwrK4ZhUsQ4j9BFSN2dhMSUALTw7YXQFFHO7lQEhhiozklI6GOLzJYSrdIKQaIUDvoveMcEj6YyhiHX7m1WkLb2YyPP3nGK89woC7eB4f0xBUsLBHBgl1vJQ/RY9cQc3BcFPqI6WXWaNpUdoTXt+hq2aHnK0rP301DTMplC8alm/tFvR4nWV9t9GkV5UVglV7OxvVwvClGhpvyoVXvxqXlalm65HVudGKbooEpc79aSFgsH7ijpxoqC9OgIyJW1cViIqMJNVh9MmYKU0F7wFf9oNjERCDDi2yI6hqKXMsnIcuXEDETIT3MSCcmI7miyJkmUO80uviOxwiKgVWB1/GZs7WeVjbz9YtbWcQaHYNjGBKgwohyc2Z/1tkz+SYrQxaItRcJGffwak18MxvQUFqsQJYROqzn7sG+fSKtfRge1RKPZ8ATTMkpzWuG1OFIlDrbb8hrSe1J+NLqLWdvb03p/w28a5T2EuUPHANr0dJN4GvNaK8xR281plY49pq0YhilspEUmzOR6oURWjDidOygXopJOjkZKmGn99hSXogU+iwqeFECoUgQ0OzslwCwQLLCIwYhAkhAo4wJz8sJTA00WFCokqr1arz0SQuNMrW9ofRWL5FychuXxy0RBxLb2091Wnp3jpHIpvqe9KpPcWFq+0f1xZex+WgTkXHsZc8VuRHeSR4/M1r0wW5O7V+Z89chMFhfSG5orS5ufBozR8ilPswARHV7Gav1yyrO1nVxZkNf2+mMwT7dAXNOhmIuHhPAxiSeGKWtwj8ylnKQIeCeGIFPXEo4pHXCPzDnk8Sax12pLS4XcK7MULIkIWa0sNZpFZ096johxhL3t86Q7oqWVpyeWSxeXyVXGMAxTkpEdIGrWnDDkWMAYppRSvD6fmrVAqy2J+FkFzOz9OTG3mOkQgruV2ca8vHtPPKTbziG2ts8LIZaiZPAPiZ/VeLnD39jNQT0Mw5RwzK3gzMHKDFO6KWY2YyEqKM6mqylgeEx6K0tLTLPhGN3qNXRVAcU5yy23MwdAW2N3+zwQYkwUbiq7aVckhkzDcLO/jGEYhmGYkoATo6wbo1iMsr4qCk2X98S+aI6+YRh3wTE9DFMy4ZieHErNm2SVbJau0lBgDgsehmEYhmF0lBrR0z1aBSfLxC2sGIZhGIaxhG3GDMMwDMOUCYo8podhmJIBuY45podhSh4c05NDkYoehmFKDps3b2bRwzAlEBY9OfCbhGEYhmGYMgGLHoZhGIZhygQWoodcU/lNDMMwDMOUPho27aSm8kdRlmMheiimJ7+JYRimSMiYgSAaDVzNlinK8rkzhcbBfRvUVP4oynKKNJD59bdi1RTDMMWdPsF3FJ9AZqrk20dho5rtGJ2MFb2WIigciFsxEr4q323Q/vJbtr0y1LmAzmGkWmJkf/p1tOk4INzRdkbKZQoedc+159fEMMRr45/RiPdhs2WufLa158JFOJA5hyIXPRNfjFBzDMMUZ4pP660kRHhPQUDyCpjqAjEvXiOxo1MLrkJ3h1iwV4bMT0UgUhAQp87JyP706xg9PqPrMQWLo/sgBQ9yBJAbYNGTg9XnE8MwTEkgEAHm2iIYsbE51cPSCG94e5tSRJLKpEpG5Xl7RwiZpPI0l5BcrvJFzowgbdoxGTOCzPvy9g7CDOVfssiX+xBlhosv+41RaC/ygrQVzQRg9LhARE23sVeLY9f2YVXe1yfkqvpzcv4YmOJAUmIKopN5xPuCgkUPwyhOnjyJ5cuXY8aMGdi0aRP++OMPpKSkyHymOBGMkGGzEUaVuVnVKESFnhqSicxMkeKHYfYUquyTENE+CoHxpvzk6BSE0Xa+AQjcmIrdYrOMpQkIHAYkyuJ2I1WIkBY0mQe+I1eY9iX3p0SLEB7hUYHiS92UHx9I+/DFyLhodOwYjWSRZ9NdERyLeITlCDUJHXsqxmn7SA5FQjidk1V5D9dW6ytcPQam8FDi0yxMpehOQuLsjYhqn5Nv/Ygz+aNMi56zZ8+qKaassWPHDilu/ve//+GGG26Al5cXatWqhXvuuQfPPPOMqBg64tZbb0Xbtm1lfrVq1eR6w4cPR1xcHHbu3KlKYoqC4FglAkISTZWDVjOICn209oncIgAd6TcjFSm6fN9eoeg4O1FULySeUpCaIWROaiBCRgcghVQPrR8YYMz9o7fCUAxGSioySEyBRJnJWhQca/yrPXh0NFKkUFPQsciy1D4oDkQJNYfk4xiYQkKJT/kcy6TdI4rtUXnJ4nkIM2Z1ZIxRpkXPuHHj1BRTFti2bRuef/55+Pv7IzAwUIobsuw0a9YMERERmDZtGmJiYjB06FC5/ltvvYXvvvsO06dPx8iRI+V2SUlJePLJJ9GmTRu0atUKUVFR2L59u1yfKQKCY0XlEI9hUsQ4j9BFSN0tvq5TAtDCtxdCU0Q5u1MRGGJAIpDgaZ+A0OScCkqKLFF1xcpKKwSJUqw4UWn5jkRcaAKmL1XzhN3K0RH5OAam+EDPZEeTMGfcQ5kVPXv37sWHH34of5nSS3Z2thQuXbt2lZYastLQ7+zZs3Hw4EH8888/+PHHH6XAiYyMlOJHEz2dOnVCWFgYRo0ahSlTpiA+Ph779++X23355ZfSCvTBBx/I8u6++25ZDu2PKWBIbOht/tKS48AdJd1YUdDCZciVtXFYiBQOZPURNxcpob3gK/7RbGIiEGDEt0V0DEUvZRKS5cqJGYiQ8TIkPJIRra+0DFhpfEeKjzEhpmVZVseeC3vl5fMYmKLC5LqdosVbZSxFwkZ9/BqTX8qs6Pnkk09kBUW/TOmErDg333wzBgwYIL+QSfAcPnxYihcSNg0aNFBrOgdt98gjj0gxdfToUXz88cf477//cN999+GWW27BypUr1ZpMgSAtMmEmd490+SQgNM5RayRR8Us3gWn99hTrogU+C1FB6iJUKReanZ0SYBYyFljEYEQgyXckxgXm5IWnBposPVRIVHu1XnskhMaZWmTR+ioWyXEQsTje+GE507pjl0kLvtaXpwUya+T7GJiiIjg2GaEJ6t5JSyK7Jt1JmW2yftttt2Hjxo0yduP3339XuUxpgCwx5IL66aef0KFDB0RHR6Nnz55qad6sXr0a3bp1wy+//CItREb5+eef8eKLL8oA6HvvvVdaEhs2bKiWlnx4wFGGKZlwk/UcyuSbhFxa1DqHoF92cZUevv76a7Rr104K2a+++koKEGcET34gFxcJaToG+qXj+Oabb9RShmEYpqgpk6JnwYIFaion5oMp2WRlZcnYG3I7kfig4OKHH34YHh4eao3Cgfb30EMPyaDpHj16YPDgwTJgmo6PYRiGKVrKpOghkaO5HRo1amQhgoo7r776KpYu1TftYE6dOiWbmlPMDrmU5s+fj7p166qlRUOdOnXkc0XHM2vWLPTp00ceJ8MwDFN0GBQ9SYj0ibRq8rgbM4Ot84o/mmuLAlwJivkoKS6u48eP47XXXpMuG8YECYng4GBs3brV3Jy8OEHHs2zZMmzZsgVBQUEsfBiGYYqQfFp6UpBWwto+alad0NBQ+Xv//ffL35Lg4lqyZIkMSCOrAQOcPn1aCh4SrBRE7EzQcWHSvXt32aJr3759Mr6IjpthGIYpfPIQPWTN8YGPzwDMEf8G+NC0ljpgfOBYPG20P4tiAll4qFNC6pCOoF+aJ4tPcYdEDzWXbt++vcopu1CMDDVF37NnjxQ8N954o1pSPKG+fMgStXv3btn3D8f4MAzDFD55iJ4WeDrplDTJ20wxJa/3AAoupSbMemie8oszV69elW6S3r17F3pwbnHk2WeflU3KyUJHgqIkcNNNN8k+gtasWYMxY8aoXIZhGKawMO7eSorUWXm0VPJiekoq69evlx3g9e3bV+WUXb799lu8//77sjdk6k+nJEEuOBrqgo6dmrYzDMOUFBo27aSm8kdRlmM8kHlACiZvsbb2xHBPkYXEDz/8gEqVKskYlrLMoUOH5DhYAwcOxIgRI1RuyeLpp5+Wxz969Gh5PgzDMCWBg/s2qKn8UZTlOBHIHAj/Eha/U1qg4GXq5K5Xr16oXr26yi2bUGuoChUqYObMmSrHfVCfTf/++y8SafAlAfVcSr07F8R4WmTp8fT0RHh4uMphGIZhChqDoicYoyenYBH7soqEX3/9VQ6MSZ3elWWoBRQN6vnee++hdu3aKjd/kMXyo48+km5DKvP666/HO++8I5eRJYn6caL8kJAQOU6bu1peUT9CdB40VAYFODMMwzAFj2H31vTxmzBnAMf0FAUU+0EWnn79+qmcsgdZW8aOHSsH9HzwwQdVrutQn0cUTEwi56mnnsKBAwekqCQBpI2yPnnyZDmY6KOPPiotPiSCGjdujOeff17GV+UX2h+1GqTxugrCmsQwDMNYYtjSE2MRy8MxPYXF5cuXZQul/v37w8vLS+WWPcjCQwNevvXWW/luvTZ37ly0bNlSChpyL6WlpeGvv/6SLiea10RPly5d8PjjjyM2NlZ2Lpieni7da9Tzs7+/f77H1aLzIGFFZX///fcqlylVZMxAkDYqOsMwRY7xmJ7dMxEsrTvBmEkdElJrruCZKGF9E5Y4qG+ekydPlnnX1vTp02WTbxpXy1WobxwKgqYxuaiLAhI77777Lvz8/NQajmnRogXefvttuR31rkzjalEwMnUn4Co0fAadF7VGY5yAxIS3N7xVCppRjGSFLaGTl/hhccQwhYJB0bMbM8MTELrlFBaYPoKB4NGYjAQsZdVToFAcyXXXXScr2bIKDR66atUqOXCnq5DgIbFD7isSOtQzN3X06Ap0P6jZPFl8qDwqNz+dDZJ7bfXq1fI8GSMkIaK9eB8lZyIzk1I8AlOL+YvIdyRWrBgJXzXLMEzRYFD0ZCB1E7feckRBxGTQsAVk6SEXC7X0Kat89dVXqFq1ar6sXZGRkUhISMCXX34pOzZ0BxTjM2fOHDnAKZXvKiSaqlWrJstijBKIALOCCEZsrMnRnjEjyGz98fYOgjQASatQhC7+UIgmbd7CYqTW16MsMDMitHW8EaEVZHPbDMwIj8LGjVFoL/KDvj4hV9XKMR2O7hhlntU2xclqxTClDMMxPX2HzrFsvZU0HeMRil5lWAhRvM2bb74p3R4VK1ZEq1atpBXBXUMMkCWBKKn90bgLEivUXN/VmCaKvZkxY4Z0IbnbTUjlTZ06VZZPsUKuQIKOxuSiuCXGCMEIGTYbYSQazArEhO/IFcr6I1J8IKKmi+W+IzFOrJ+orZqUiNnDQkQpZDFKxTht/eRQJITbcDEJMZIaopU5DLOn0Dr2tvXFyLhodOwYjWSRv+Jhq1aGQvyERwUiXm0XH5iK3dbbjGR7EMMUFIZjeoJjtiDgbR8MmLMJ4zv4wGcAsCDpaZRVzUNxNtS77sSJE9GuXTsZYEvzEyZMkL+0PD+cPXtWip777rtPthgqq+zYsUP2l0OB3K5ArazILUbjdBVUnzjPPfecHE9r1KhRslWYK1CTeIoV2rlzp8phHBEcq8RGSKLJYqKJH731JWw2kJIqRUxwiBArSvUkJaYgenSwWDcVKVDiiVJ7sraQCLFCiBFaXdIiAB3p1+i21vgGIFBuZ7I0BcfGcmMQhilEjAcy5xqHq+y23KLAVaqEt27dKq0Q1FsyVXwkUtauXYuMjAwZoHrhwgW1hfNQrAhV2DQYalmG+igiXA1gJkvcpUuXZAusgoQCrS9evCj35wr0vBDUFxHjBMGxQvzEY9jsRCSR4NHH+iRHmwQKETwa0SliHfEvMSUUvTRjirKuyPVlckKEuLRtMGLluiFIlIJJ73ZjGKagMSh6khCZq08eGoG9bPbT8/rrr8tBIynWhCwxeqjfFXJTUBNoatnjClR5Tps2TVb0HTuaX9tlko0bN6JJkyYyeNhZSJzPmjVLNjN3NWjZKA0bNpT7oWbwtF9noe0pUfN1Jg9I3OjdWmR16Rhgsjp3zBE0GUsTsNE0KfBFr9AUJEYkIiW0lymgmKwuG6NAHjCnyWtbe1YfcewRMmaHxE8yojumIFXzpxmxFDEMky+csPTYIgVpZeyvdMOGDXjjjTdkBXf//ferXEtIqEyaNEm2vFq6dKnKNQ5ZJagzPHKdlXU2bdqEW2+9Vc05BwUYnzt3TraOKgzomaD9udp/DwlmFj0G8O2F0JQwk1tJupYSEBo3Er4UuxNoCgam/PDUwBxLj8C3VyhSZgPjzDEzQngkRyMlTJVDyXCzcQfbqhgicn2ZA5k1hFhCVHu1TXskhMZBHo5+Gw5kZpgCw0N8lcpmR0eOHEH9+vVlZg5kzemA8ZvUrDVDF+BUjKVBl8oJCBB/2AZ4/a1YTHwxQs0VLr/88gu6d+8um0I7M1L3nXfeKXvvpdgLR4G1FMx84403ylZd5Aaj8aKMcOzYMdnxHR3TwoULVW7ZhVo1UUwOxUw5C8XJkHh0VkhQ83G6/vSMUHyWM9xwww0yBmvRokUqxzjUMzO5yc6fP69yihfUOaTRv213QGPOaZQrl8/vM4Ypw9DfkvY3RDGSa1b9IN5TDdG6lR8aX98QVat6oXz58nJ5aSePN4l1HI9VshI8pR1yW/3222/SipNXSyJqYk6tekgcOTM4JsXwUKVHneCVdegZI8sJuX2chcTm+vXrpUgtTEgk0X5d6cKAXHgUB+au8b0YhmEYS4x/PlEPzBbjblEqWzE95G5q06aNHIvJCH369EHv3r3x2muvGWrVQ0HRs2fPxksvvVSoX9TFFRrxnHBF9Bw+fFgGgrdt21blFA7Uko9a7mnH7gyapZWOnWEYhnE/ebi3NCiQ+W0EbEnC03m0US+t7i1aj4Yu+PzzzzFkyBCVmzdkSmzfvr0UQNQLsD2oxVfnzp2la4uCpMuKqdER5E6hAUajo6PltXEGuu7UvxGNbUVjaDnDn3/+KTsbjImJkUNEOANZAqnbAgqgdla4/v7779LSR7/FMYCd3VsMUzJh91YOToieRehroJl6aRU9oaGhsjk6xfNUqlRJ5RqDWvRQBTxlyhQ5Urg1+/fvl24Ralq9bt06NGvWTC0p21AQc1lsvUYt1lwN3i5IWPQwTMnEXaKnYdNOOLhvg5pznaIsx6DoofFGgzHdPwl5hfGURtFDooR6XaavcFf7YSGx884778jfV155xRwTlJiYKFsXUe/OdCzkPmNMkMWjU6dOUizedtttKtcYmqWH7tftt9+uco2RH0sPidbx48e7ZOmhWKCoqCj88ccfuPnmm1Vu8YFFD8OUTNjSk4MTlp4ByD0y0FAssLL+lEbRQ+4VirPZvXt3vqwwNEQFVYg07ADFftDYWpQo7oSaV7du3VqtyRAUBE4icN68eXjwwQdVrjEopub666+XHUY6O4xHflpvaVY9ajXmbN9A3333new5mgYeDQwMVLnFBxY9DFMyYdGTg8E3STBirFtuyVQ2emX++uuvpbUgv24n6rV5165d0rJTo0YNWeYXX3whm1Sz4MmNJhpcCeyl4OeaNWti27ZtKqdwoP3VqlXLpc4USSgRjRo1kr8MwzCMe3Hi84msPfqWW8GYWQY6JqQ+dlJSUuRI2O6AhBO5XKj5O4kpaglmtA+fsgY9Z5UrV8ahQ4dUjnE8PDyka4ysNoUJDZtBgdO0f2f5559/ZL9EdN4MwzCM+zEoeqiTQhphVGfl2RKKhA6lv8k6uZ1IlJDbgSl8yJ1Cg466wr333istLzSQZ2FALfAoHoj26wrp6ekydoxhGIYpGAyKngykbhqKvnpfVoteCL219A9DQYOJ3nXXXahdu7bKYQoTCuh1dWgGigOi+KkPP/xQ5RQsNEhs9erVMXDgQJXjHBTAXBxbbTEMw5QWDIoeXwTcOgeL9Gad3UuRsCkQ/qX4w5S+vMm15eqXO5N/SPRQrIsW7+IM5CaioGIKZnZle2cgFxyJK9ofxWs5C8UtUXcILHoYhmEKDoOih4ajWAAM0MX0dEjF2FIeyExxNxSb0b9/f5XDFDbUwo5YtmyZ/HUWai1HcUGujnhvlIiICLkf2p8r/Pzzz/K3sIfNYBiGKUs4Echs3YKr9LfcSkpKkk2HmzRponKYwoaarPv5+cn+jFyhTp06eP/99xEfH4/33ntP5boXcmtRb9szZsyQLbdcgQaXpfgl7qeJMUTGDAQZHhGeYRiNPEUPdUroEzwT1qE7SZE+8IksvWHM1FkgtcShoSeYooXci8uXL5eDj7rCQw89hJEjR+KFF17A3LlzVa57oPLIijRq1CgMGjRI5ToHDTK6dOlS2es3YxCq9L294a1S0IwCrv6TIsz7kilCvPusjoESZUsKQpTYKjOv/RTEcTBMCSYP0bMbSxOAyXFPwzp0JzhmAYbOWVRqW29t2LBBVrJ33323ymGKisceewxnz57Nl2CJjY2VLfCGDh0qY3zcAVmOqMuBsLAwTJs2TeU6D3W+SM+au7pFKP0kIaJ9AkKTM5GZSSkegakF16IiY0YQvMOAeLkvU4pHound1zEayVp+cjRSwnTCpzDwHYkVK0bCV80yDOOYPEQPtdqyF6xMwc2lt/UWxVh4eno63SMv435uuOEG2YJu5syZKsd5qLfRr776CuHh4XjyySdlCytXRzOnoGUSUNTZ5NNPPy3LzU9vpuR+o9gl6qWbMUogAsw1fbAQtSZnuxQoZstLEKQBSFpkInQfaEI0afNymdX6FmTID7/o5FgLd36wENG53PskQEj4TDFgWVEWmBkR2r6trES5jikDM8KjsHFjFNqL/KCvT8hVtXJMp6k7d5lntU1BW8MYpgSQh+hxJGwcCaKSz8qVK2XLIVda4jDuh9xH1AcOublchUQsCYxvvvlG3l+KFXr++edl/zpGoNZ8JHRoO9qeOpek8vIjeChujM6LAqEZowQjZNhshFHlbmVW8R25wmyNyYwPRNR0sVyIkXFi/URt1aREzB4WIkohi1EqxpktNaFICLcSLBlLkbBRL7DywDcAgRtTc4UD2ESIkdQQ7ViHYbYUS/aOyRcj46LRUVmWVjxs1YWGED/hUYFma1R8IB2D1TYj2R7EMHmInhZ4emwgxufqhNA0FlfK5NG5v3ZKAeRKocEuOZ6n+EAupPbt28sBObOz5XBxLkOxNzT+DFl8aGBQEjE0sCjF5tDYWTRoKPHbb7/J5SS4brzxRvj7+5vH8qLhRChWKD/Qebz44otSXPfr10/lMkYIjlWiICTRZNnQxI/eShI2G0hJlSImOESICqV6khJTED1avLkyUpECJZ4otSeriA3B0jEgl3vfLQgxQochaRGAjvRr9JisIbEltzNZsGxaohiGyTuQGcExOLUlAG9rTdVlMvXOnPR06TTzrF27FleuXGHRU4ygrgNotHXqqNAdwcjUyopGvae+cUjoUAs9KpcEjdbsfMKECdIdRu4rGryUWmnRQKYUv0OtwvIL7Y/O5+2333Zp2ApGEBwrxE88hs1ORBIJHn2sT3K0SUgQwaMRnUJxOElITAlFL83ooY/JkclKLEjLTQKWGvUMkWjJr0jK65hsEoxYuW4IEqVg0rvzGIbRyFv0EC2eRpJFc/VTiCnFnxEUxEwui9tuu03lMMWB4OBgaREZM2YMjh07pnLzB7kvH3/8cdknE5VJnRiSCCLIykOi6L///sOiRYukAHKXu/P48ePSVUYt01hcOwmJG71bSy80OuYImoylCdhomhT4oldoChIjEpES2kvMURYJmiiQB8w+wRgdDUS1txQRSRG2RAW5pqIQOC4fgcV5HZM9q4+4JhEyZofETzKiO6YgVRNqRt1tDFMGMCZ6yhgbN26Uo57TkAJM8YKsLVlZWbIJurshawuN7E5uLIL6zSELT0FYYWikfToPOh/GSXx7ITQlzOT+kS6gBITGCaFBsTuBpqBdyg9PDcyx9Ah8e4UiZTYwzhzbIgSCanFlLstG826KE0qOTslxOYkUBooJEqggYVP+FAQkZ0LFVFstM2p5cXBMKjaJjsMcyKwhxJJQZmqb9kgIjYM8Tf02HMjMMPA4deqUDJA4cuQI6tevLzPzA5VDlYURXn8rFhNfLJoAzl9++UW2mFm1ahW6deumck3UrVtXfoF/+umnKocpTlAA8SOPPCI7A6TWU+6GRmanZ4KekYJovUdCh0QPNVWn8cFKCps3bzb8t+0Orl27pqbE11k5/j5jGFehvyXtb4jiGdes+gGNGzdE61Z+aHx9Q1St6mWoQUbDpp1wcN8GNec6RVkOv0ms2L17t3Q9dOyo/0ZkihPUnw1ZeiIjI6UwKUlQqy8KmKbjL0mCh2EYxh1ChSjKclj0WEGuLYJFT/EmJiYGd9xxBx544AFs3bpV5RZv6Dipfx+yItHxMwzDMIULix4rqKm6l5cXdxRXzKE+d77//ns0a9YMQUFB+Ouvv9SS4gn1xUPH2bx5c8yfP18eP8MwDFO4sOixgr7CJ02axJVSCYC6T6DO/Zo2bSpbQBVXVxcdFw1nQgJtxYoV8rgZhmGYwodFjxX33Xcfxo4dq+aY4k7NmjWlkOjQoQN69uwpm5kXJ2joDDou6vyQBBoLHoZhmKKDW2/ZaL1VnDlz5gwqVaqEihUrqhyGoObf1H/PBx98IONmSGy42oGgO1pvUZ8/FKy8YMEC2aMzDU5a0q2H+tZbs3dWkL8Fib7nbe68kWFc57GWl9zSeqs0wJaeEsa7776L6667DsOGDcPixYtx+fJltaRsYz2uVtu2bWXT9vwOWeEstD/aL+2fBq2l6enTp7O7lGEYphhQjiwzlAhtOj+JKVgoNoRccD/88AP69u3LAsgKGldr27Ztsjdt6svn1ltvle6vwmDp0qVyHC3ab6dOnbB9+/Z8j8/FMAzDuA+PXbt2ZRdmh2N6ioN7i4JLKZU0rl69KvsUomETNGsGmS+HDBki3TvUUqisu8DI4kPxWeSWoZgacjMNHjxYts5zhDPuLRqclqw5H374oWySTrFFb731lhwyo7TB7i2GKZmweyuHMuveooBSqthKouDRU9jum5IEtejatGkTFi5ciNq1a8sxturVqydFIQ0ieujQIbWmc9B2s2fPxv333y+HraDR2ul5ovidP/74o1QKHoZhmNJAmbX0lFR+/fVXfPbZZ9K9dfLkSdl6idxdVJFTZVuhQsF/gZdUyN1EI5tT/z7iuZd5NLYWucD8/PzQqFEjmdLT0xEVFSVHdW/cuDEOHz4shc7OnTvlqOhkXSPo74aGK3nsscdkDE9phy09DFMyYUtPDix6ShjUhxAFxrLQyR9///031qxZI3vgJmsQuQrJVWUPcom1bNlSxuyQC4usSK1atVJLywYsehimZMKiJwcWPSUMarJeuXJlFjoFwOnTp/Hvv//iwoULcoA+SjVq1JAuLPot65R60XPgfUx7FXjkk1Goq7IYpjTAoieHMhvTU1KpXr06C54CgoRNmzZtpDWHXF7UAoysOSx4iiEkUG7zQoRK0+ZlmPIefx/H1CoFQkHtw9b5OML6OPTzhXEdGKaEwqKHYZgSxjJ8+0A82n93AbG/U1qIhnvTgcajMKZEWmnsnI+rlNjrwDAFD4sehmFKIG1Rr7GaxD0YFHVPjoVD/j6Dbx83WU2+XZeBX8zTYnVHVhLFsXndzFaXiNu64ZcDlCvKeXUs9m4bizc0awxta17vGeyg1VR5v0Tn5FmUZ9MKY+N8CIvy7R3HKsv5DyfproN2HKYkz5+wKFckdUx5HyfDlGxY9DAMU8K4B+36f4o4qpijl6k8K7ZtR/1XLiB22nCsGzMc0KY/M1aR1x38i7K60HZtkfAV7ccX3V55G83avY0JIn/M4HR8+8BYNJxmWm9C5HbEaccjBMiRrpT/AdoIgfFVTFuEq/LCfXdZHYO98yEL0C7co7aL/S4Mya/S8VsfR3fL+ZDaanuB+ThEMp8/lZtz3LHfiW1p3TyPkynrNGzaSU3lj6Ish0UPwzAljjZRqsLu+pPJKmEtftqFIZAsJ41bCjGgm5YLDaC3hIz5FMhIzS0ADqTioBAaPbqYZuveEYZmC38yWXt0+WgcgIYgUWOy+rSJEkLItMSMzfOh8uV26jiEUNm7zUkhYnEc6vytjtuMgeNkyjYH921QU/mjKMth0cMwTMmlywdCLCxEF01suAMSPPoYG80S4jL3YJC0nvTDNilglBvMFtbno6w38jhkcoMQObALe9WkJU4cJ8OUUFj0MIw16THo0iUG+QglZQoSEiV6y460XLR0LnBXZzE59lt8bhGgWYcEuZZr25JlZNtYrFRxMnK9/v1yixJxvN/K1lgkKrYjtN12HJWxOQp752NVfi6srT5GrUBd+qHLtnik6I+BsHecdHx6AZTXPMMUY1j0aCwJl32BmFP4ErXAIK5WlFzBFjx0jfX31iMcTt5dpjjRuA/aZ/Q3uXyk2yce7V9xorVS41F4hOJv1PZf7W1rackRy+/xNQUF51pOy1T8zbR5fhj03ds4OMa03hsUD6MFIOsR4gVimel42yL57k/RzRy0LLB7PkJ86MqXSQsutjgOIVT084knZLH2EeVSnNID2v7GmkRdXsfJMKUA7pxQkB7TBf5j2mFxdhx6q7wl4eFAXM58nlDFOgT4Yl0k/FQWU0ywvjckcF9vjTR794rvpU24R+ZSyrpnELG6H2JtCTamVMCdE+ZgwNKTjpguHjAZPkzT9ALqElNabBPpSJwPTEuzFDi9leAhQZRjIegCedrKOhMTrlkNxHUZMgbr14+Bv3ZtLKwLajvr8sjCo8oyFZvXvkzJWSMUY0Xv/hixfifSaNriPuW2ABm7/wxTstiha8YeMQa2LVQMUwoxIHrSsHP9CPQnBbBkKsa0Wyy+wBaj3ZippeNln56I+evboaWdT3q/yHXyi1Omxe0wZqo6ayFwdvanfBJHfoj8Yho6d56GNLHeusg0hPvvxERtu7SBmD/EJHCGSIuSKX9xO1XxKvLeF+WPwKzX2R2WH9JjXseszq3hL57gcP8xaLfYdG3Tpm1DHytFaez+M0zJwtxazF3B0QxTQnAqpmfJwlno3NpfTPmjdedt2FVaal5ZAdpBbwnoM0sGC8rTFgLnBXu1XfoubMMs9NG2ExXrerIs+LVEO5lvsg5o1iQzRvbl3xqd1STjBMoKR9fWf/5Ak2uL7pPu2vqFDETnWQstxbwr959hGIYplhgQPb0RtxiyAu8zawQmRvqZLD4YiJDSEPBAQmT9fCTaEnBU4fnPx8A09aWfNs244FBWH7OVQFoExLWU0/2xUFakOtdIfvbF5I3+fhiN1eF7wjAMU6owZunpHWd66WumfJovNUGevfHCNGCMv2VsBgUyy/nOOeIuPXE+1psmbaPFiUghNQaaJ8SMqETDZVAIiZ80TCNr2T7TIokz+2Lyj9V9ktd8RH/TM67B94RhGKbUYKD11hKEeyxEf4vYBQponoqW6/IXz1BcWm8RphZcuiptxGJkx/UW4ocsXKasziNGANta44svgCE2Wvdo63aeloZ1IYnoQm4ttUxaGta1xFSPPlDF5aynykozsi+yPnDLIudwdM2kNUe7TyNMLfh06xu6J2UEfesthmFKJmW99VY+RI9864O8Xa5SnEQPwzCOYdHDMCUfFj12RQ8JG3/ojR8WKEtIfmDRwzAlBxI9DMOUfFj0FNHXG4sehinZnDlzBocOHUJaWpr8PXfuHK5du6aWOmb5z2vQ8+671Jxjjh07hurVq6s5S+gY6tatayqvWzuVyzCMPapXr4YG19WDv38z8Vtfih6t88LSjjHRQz3YaoENZlT8g5pzBRY9DFOyuXDhAk6cOIF//vlH/l68eFE2ejDCdwsX44H+fdScY0hQ1ahRQ81Zcvr0aTRo0MBUXr+OKpdhGHt4Va6M2rVr4vrrr0Otmj6oXLkSi54cKKbndbROy1/8ji1Y9DBMyebKlStS+GRmZuL8+fPIysoyLHo++uQrPPn4I2rOMXv37kWdOnXUnCXHjx9Hs2bNTOUNvVvlMgxjjwoVPFGlihe8q1eHl1dleHqWl32RlQVcDGR2Dyx6GKZkQ66sq1evSvFDv0YFD/H2tA8xdsxTas4x6enpqFevnpqz5OjRo/Dz8zOV90w/lcswjD1I4JDQ8fT0RPny5Uydr7LoyYGac09tuQ75jFvOBYsehinZaCLH+tcIb0yZjgnjRqs5x1CLk/r166s5S44cOSJblcnynu2vcoHGLW7Hgd1r1ZzrFKdySuM5EXxt7FMQ10YTONa/edGwaScc3LdBzblOUZZj0NKT07dMDhzTwzCM6zjz929E9MjyngtVuQzDMLkxNgyF+HqjLzjL5H53F8MwDMMwTEFhLFybeqiVPr8ukKMoUGuuLjzSN8MwDMMwJQcDoicdMUNMgy4uHqGyer+AabAzSCfDMAzDMEwxxKnWWwjvgl0vUNN1HoaCcQ8XL16S/awY7dCurEJ9aFA/NdSfRmmBY3oYhilsDMX09B8xCwsthiCfijHIGX2aYVylOAmeU6cz8Xfabvy5fSeSt+3Alr92IH3PPmSeOavWKDroGtG1YhiGYVzHUJP13ONw5b/lFsGWHubQocNqqnDZlb4HG7f8JYXNViFy9v9zEOcvXFRLc1O5UiW0aNYENwa2RLs2LXH7bR3g36KpWlp4NGhwnZoq+bClh2GYwsag6CkYWPQwhSl6dqZm4PvEJCxesRp79h2QeY0a1MeNbVuhWePr0aB+HVxXvy4qeHriqecnofOtN2Fg/944euwEjh4/idSMPfgr5W8cPnpcbtu8aWP07NZFrNMHrQN8ZV5Bw6InNyx6GIYxijHRU8LH3qIxgYYNGyYHJiwr0OCMs2fPRu3atVVO8aSgRQ91r5D0y1p8/OV8rNuYjKpVvNDjzk64p8cduKPTLahbu5Za0xISPb/9/ge2rFwou2zXc/T4Cfzy20asWL0Wv6zdiHPnL+C2m2/A8EcGoE9Q1wLt2ZRFT25Y9DAMYxQDMT1LEN5nG6alldx+erZt24affvpJjt/jDk6dOoVffvlF/roDd5dH50nnS2WWZdb+vgW9Bz2Ooc+8KONy3ns9Ctt+S8RH776G0L497Qoe4qEH+uLEf6ew5Oc1KieHenVqSwvQrGlvYOuaHzH11bE4e+48noicgHsG/A+r121SazIMwzDFCadab7lb5BSWpYcq/+7du2PVqlXo1q2bys0NjeGTmJgoBzCkwQ2HDBkixyaxZvXq1bIcKrdr164q13XcXZ7R8y0OFISl58ix43jxtXexbOWvuKlta7z07FMyBscZSNh37jUQzZtcj3kfT1O5jlmzfiOiY2Zh6/a/Edztdrw96QXUr2t7kExXYUtPbtjSwzCMUQy13nph2jbL1lulkPXr18sX5/DhwzFu3Dj5S6NG54d77rkHlSpVwtatW1UOU9D8uPRn9Og/BMl/7cCH70zCom9mOS14CHJRPRTWD79u2CxjgYxwV+eOWPzNx3K/f27biW73Por4n5arpQzDMExRY8i9NXXMeszqYxqFNSeFiyWlh8jISPl1v2bNGil2aFTnqlWrqqWu4e/vjw4dOqBKlSoqhykosrKu4qU3p+HJ517BnZ1uwaofvsR9vYPks+oqQwffj2pVq+C9mbNVTt7Q/mi/v/z4FbrdfhtGvfiaPC46PoZhGKZoMWTpKe1jb126dAl//PEH+vbtizvvvBNeXl7w9fVF+fLl1Rqu8cEHH0gLEokfpuCgeJ1HnnwBXy34AVNfHSdjdmr6eKulruNdvRoeCguRcT1vvvcRXnztHQwbFYWHw5/Dg48/i/+NjsK4V6ciNu4LGSxNbjUN2j9ZfKa8Yjquh8KfLRb9/TAMw5RlDIgeguJ69FYeNQZXKYDiAWJiYmTnbwcPHpRChdLff/+t1nCd7777DlFRUbhw4YLKcZ5q1aqhd+/c8pJcZ97e+a/YSzokJAY9Hontf+/CNx/H4OEH+qklrrN9ZxreePdD3Nn3IXw05xv5bMz87GssWbEGBw8fwZmz53Hh4gUc+PcQlq9ai3dnforHRo5Dh+6h0rVGAok6OSQeHXgfvv0kFjt2pQuhNIaFD8MwTBFiQPRQx4R9gMU6K0/aQMz3Lx3uLWrpNH78eDlNrq2IiAiZfv/9d5mXHxYtWoS33norX6Ln6tWrNnsspjxaVpbRBM8/Bw9jwWfTZb86rkLP9Y9LVyJk8Aj0fGAY5syLh79vU0RPfA7Pjxwul08a9wyWLfgMP379IX746kMkxc9B8i8Lkb5phcx/6+Xn0aJZY3zxbYIUP/0eelIGU3e65UZxfLE4cPAQBg6PYOHDMAxTRBgQPWnYuX4E+uuNDX4hGNh5G8THa4nntttuk9Ye4rHHHpNCghJNM8UXipF5PPIl2VJq4H2989U54IY/tqLXwOF48rmX5Xzs5AnYvnYRPpsejcceDMWYp4bi5hsDMWnKB7IZuzUVK1ZAuzYB0qrzScybshn7+2+9LK2i5A6jss9fuIT5nwrh8+8hPBE5kWN8GIZhigADoscfrTtbjb2Vnoj569uhJY+9xRQRr0yJxe+bt+LW9u3w4ex5Ms5G6ynZKDTsRNTr7+KBYaOkQKGm6YnzZmHAfb3ksBMatGzam+Nx5uw5vDBpisq1D20b1q+ntAjN/zRGbn/fI0/hy/kLpRjasDlZHj9TsDRs2klN5Y/iVE5pPCeCr419+NrYx5VyDIgeP0SuWwzoW2/578TEUhTIzJQsvk9cjtlzv8frUZFY+OVMvPnSs1IAdb/vUSz4YalayzH7DhxEv4fCxfpL8PILz8im5l273KqW5saveVNERYZj6c+/4tuERSrXBDVpnz03XgY6U2wPBTnTL83v3vcPYt58Ca+9OFpstwSTp8XhiUcHyuOn5vVMwXFw3wY1lT+KUzml8ZwIvjb24WtjH1fKMRjIbN2CiwVPYULXnDFBLaQmTI7Bvb3uxpBB/aUIH/bQ/Vjx/edo6dccEePfkC6lYyf+U1vk5q+UXejz4OO4eOkyFgmxM2LIQJQrl/efwuOPDpBDV4x/Y5ocrPTTrxaga7+HcXfoY7JZOgU60xAVly5fkr/LVv4mhQ+Jsa8W/IhBob1x7vw5fLtwsRyslKxM+hZfDMMwTMFiTPSkx6CLZuWRqXT10VOcoet98aL90b/LGmMnTYWnZ3lMnvCsyjHRrEkjfP/5B3hl7CisXrtRCg0KTLaGRlWnYGLfZk2x5NuPpVAyCt2LD6dOgpdXJYQOGYmX35ouByylGCAKaKZYniXffoKEL2bIX8r7a81P+GDKy3K9L779QY7Tdf78Rfxz8IgcuoJ6jmYYhmEKBwOiJx0xQ8agnb71Fnm7usSIJUxBQwOGUkeJemtPZmYmDh06pObKDjTMA/WHQ66iWjVrqNwcyFoT/tggLI//DE2vbyQDk6mzwpOnMuXy/f8cwtBnxqGVfwvM+/g92Q+PM1y8dAmvvzsD/508Lfd1Y2ArfD7jbRkDZG+4iTq1a+L+kJ748sOpWLnwCzksxgUhYi9fuYKrV6/J1l00RhjDMAxT8BgQPTZab/V+AdMwH4msegocGkOLBM6oUaPkmFofffQR2rVrh5SUFLVG2YBEH/Wdc0NgS9njsSMo/oaCiGUMzso10urz07JVUvB4V6uGOR+8JUdbdwZqZj74iWfx09JVmPZGFGa8/Qq2pvwtW5BduZKl1nJMgG8zfDHzbRnjU7FCBXNXBCSk2IXJMAxT8BgQPb3Rf4R183QSQtx6qzB488030bx5c8yYMUMKoGeeeQYPP/ww7rrrLrVG2WBR0mrZaeD4MeHSzZQX1Jv2qCcelW6menVrIfzZieIZ3oPY6JfgU8O5Th0vXb4sBRNtP/+zWAwK7Yt7e/XAq+NGScvTE2MmGBY+BI3QvmD2dNTwri7nKcaIymEYhmEKFgOiZwkWzlqPMf76mJ4+mCX+9ZHTJT++hwYFfeCBB3DLLbeoHPfQs2dPOaZX5cqVVY7zNG7cWFp1fvzxR3z99ddytOnJkycjPj5eTpcVPvt6Adq29peDejoD9d9Drbu0Z3fEmIn4Ze1GtdQYUa+9J4XJVx+9I/vr0Xj80YF4MWIElq/6DeHPTXRK+HS4oY0sT2sa/8lXC+QvwzAMU3B47Nq1K5tGFy8KXn8rFhNfjFBzBQe5hchKQsNN3HST6732avz5559SzBT38latWoVu3bqp3OLJoUOH1ZR9qEl40P1DMfXVsXLkc2ehnpHPnT+Pd19/Ec9OiEZqxl45XMXE50eiejXHg8ouTlotXVjkkiILjS2on6A33p2JOzvdirj3XjVbcIzwbcJijJkwWQqyFd/PybOTxQYNrlNTJR9n/v5J4NevX1/NWUKdi9I7TJb3XKjKZRiGyY0h0ZMe0wX+Y9arOY0RWJzPpuuFLXrKGqVF9Lw29QPZ5JtaR3k5aTVbvW4TBj8xRsbSBHXtgsuXr2DqB5/ioznzUKdWTTm0hL0YIeq88I4+D+KGwFYyDsgRJF7GvTYVjYQooXWpSbpRhjw9FitWr8PT/3sYE557SuXahkVPblj0MAxjFAOihwYbXYj+BdA3T2GLHrb0FD+MiJ4uvR9EYEs/fBzzhsoxzqNPvYD9/xzELz9+Ja0pGtt2pMoR0v/cvlNaaEhs0FASesiC81ZsHNb8NBdNGzdUufb5489teDxigmzlRYHOd9/VWS1xzO59B3BXyMNShP25+geVaxsWPblh0cMwjFEMWXqWhHfBrhfWIdLNgcuFLXrcJQJWr14ty6Fyu3btqnJzoH51MjIykJWVBV9fXzlSuiPyKs9Z3H2+BUleoodcUd3ufQTT3hiPQaF9VK4xqINCGvn8lRdGyvgba6j11OffLMQ7Mz7BqdNncE+PO/DCM8PROsBPjr/WMfgB3H5bB0yPnqi2yJtDR45h2KgXZdD14488gKgxT6JSxYpqqX0o0JpamP009yPcfGNblZsbFj25YdHDMIxRDHVO6N8aVoHMpSOAWQ81GW7QoIFsHeUqO3bsQL9+/VCjRg20bdtWWm2on52nnnoKl8TXv7t44oknULNmTXz88ccqp/Si9WHT7Q7nApgJGjKChE3vINtCkvraod6cf1/+nRxJff2mPxF0/zDpDnvvw9lSwDz8wL1qbWM0qF9XDo0xdPD9+PjLBeg1YLgUQHlxb++75e+adX/IX4ZhGMb9GGq9NXVMOyymTgktUukYiuLEiRPYuHEjhg8fjsOHD8svfFfZsmWLtK489NBD+PDDD6W7yt/fX/at8/zzz6u18sfrr7+OTz75BKdOnXKrkCqu/LVjl+z4z17nf474bcMfssdl6g3ZEdWqVpEjqf++fAGiIkcgfc9+TPtwjhRFv23YLMfpcgZqkfXG+EjM+/hd2b9P38FPYOoHn0i3lz16332XbGa/8lfr2DmGYRjGXbjYT0/p4eWXX8Ztt92G2bNnqxzX6dChg+w9mcp68sknERERIV1X3t7eMo/cXfnhyy+/xCuvvIJevXqpnNIPNRWnDgldgYacuLFtazWXN9RD8zOPP4r1S+ej4XX15HxM3Ofo0nuQHCX94y/mOyWAqHk99cJ8X++7EfPR59JNR83bbUECy695EynyGIZhmILBxX56So97iywne/bskXEw+aVNmza47jrLmAtyb7Vu3Rrnzp3D6dOnVa7zkAXp8ccflwHK4eHhKrf0s2ffAQT4Gh8fS4PGuPr30BE55ISzZF3NwpFjJ/D0/wZj04p4vPTsU9JKM+nt99G510DZwzO1KFv56wa5H0dQ83WKCfpu9vuoWqUKhj7zIh558nns2JXb5dXt9o6yr59Tp03DZjAMwzDuxZClx3KE9dLl3qpVqxaaNWuGRo0aqRz3Q8NIUAeFtC9X2LlzJ8LCwtCnTx+88847Krf0Q64hEhv16jh/3bTRy6+rV1v+OsOhw0elm7NxowZi+zpC/DyEZQs+w8ak76TbivLmzEuQ4qVNl94IGTwCL735nmy2/nfabpsu0s633iTLeHXcaCRv24GeDwzHM+New979/6o1yNJk6t8nedtO+cswDMO4F0OBzKZm63orTxfE8LhbhiD31v79+6VLiq6ds1DLlL59+8pWYNQjM7lBygpHj5+QvzSMhLNog4zW9HFuyAniv1Mmi5z1thQb9L+HH8C8j6dh54YlmP9prBREVapUQfxPy2Ungz36D0HL2+5B/0efxvg33sWsL+bLISYy9u6XHwtPDBko3WejnngES39eg7v6PYSRY1+THTBWrOgp93PoyFH5yzAMw7gXAzVoOmK69AH0o6ynDcR8/9LVeqsgoKbrI0eORIUKFTBhwgSVa5zz588jJCREtkD66aefZOValsg8c07+kptq3cZkp9Kf23bIbZP/+tvmckdp/aZkue3GLdtsLqe0+c8UKUCpj5/I8MfwaexkvD1prOzpmZq80zF/8/1iTJoyHY+NHIc7+z4E31vuRqd7Bsi+gzL27Edwtztkc/aERctlj9Mff2EaiiIry/VgeiaHhk07qan8UZzKKY3nRPC1sQ9fG/u4Uo6LnROSEBoCfJG/vnuKUz89FIBMLa0oAJlaXjnCSL86JA4feeQRzJ07F1OnTnXYesteeStXrsTdd98t3VqtWrVSuaZjpbG4evToIZvFv/3227Llj0Zp6aeHOg7sM+gJNVd2eO+NF/FgaIias4T76ckN99PDMIxRDIgeEjj+2DkxG3Ga6kmPQRf/nZhYwoahKEzR89JLL8mBQcnS88EHH6hc29grb+3atXjwwQfVXA4XLlyQTe19fHxkx4e7d++W1iSN0iJ6qOVWr4HD5cjqHW6w32GfLY7/9x+efO4VDBnUH/f2MvWBYxSKJfrf6CjZoWGvHneqXMeQyN2z/x/8uW2nHI398NFjOPHfKYtm6p6e5WWrsOvq1UX9urVRrlx5rFi9Vg53QZA77b+TpzH7/WjcY2e/LHpyw6KHYRijGHBv+SFy3WKgjy6mxw2CpzQTHR0tBc+IESPw/vvvq1znuf3223HgwIFcifrpIajlGc3rBU9ponJl0wjkzZo0RpeO7Z1K/e7pgYoVK6C6EIW2ljtK1DMzNVcnt6Kt5ZRuvilQLl+zfhNi4uZgeMR4jJ30NubG/4S/0zLQuNF1GBwWgtdeHI0vP5yKtYvnIeOPn7Fh2QI5DlizJtcj6ZffcOnyZYT2DZaDjYb0NI0P16JZE/nLMAzDuBeDUbHWLbhY8NiDBM/48eNls3LqlNCV4GXGBLWSIo4cPSZ/nYGue2BLf2xNcb4lFG17Y2BrbNmaonJM/HPwMD77+js8+PizaN2pNwYOj8CHs+fiwoVLeODeXoidPEGO8bXr92X4/vMZePOlMdJaRGNwNW/aWJZLgc2d7hmIGZ9+jd5Bd+HXxHn4YMrLcnT1Vb/9LvdDViCGYRjG/TgUPTS6ukeXGFg31FoS7gGPcA5jtoZ6YCbBM2rUKDlNPSZTMLOWrly5otZkjEDWlipelXHoiKn5ubN07NBOChfq+8ZZut95m+wokAYmnfHpVwgOGyrH4powOQZHjx+Xw1fMnfUedq5fKsfLoqbsA+7rhQDfZjZb2NEQFz0fGCYDm2+5qS2S4mfj/bdeNg9kSk3sSVRRb8503gzDMIz7cSB60pE4H5j2RSSsY5V7xy3GiFkLS0XrrUmTJslYnqCgIDk/b948OU8dDTrL5s2b5S+5tLy8vHIlCmxmnKNp40bYs/+AmnMOsrBQvAy5oJyBWk+VF8KF3FcUUzR5WpzsWJD62KHm5tTL8sTnR8rOBEmUOeJ05hmMevE1PDBslIzv+XzGFOneIsuOnu9+XCqtqL7NG6schmEYxt04ED1p4iu2HVrabJ3lj9adS8fQFDfffLMMFn700Udls3Ky0tD8wIG5R+XOi/vuu0+WYS/df//9as380bJlS1nerbfeqnJKL+Rm2rr9bzXnHF06dpBjdiUsSlI5jqEA5g8++VI2K39lynQZeEyWl18XzZWDiFIfO5plxghr1m+UvTf/uHQlnn1qGFb98CWCu92uluZAnRnSaO/EDW1yWukxDMMw7sWB6HEkbBwJopIFjYpOAcHWiSxAzvLAAw/YLEtLgwYNUmvmDxrWgsqjMcNKO+1vaI2Dh4+aOyp0BnIzPfRACH5athKHj9p3kZ05e04OMEruq+iYWfBv0VRaZL7//ANpnaF+eZyBtiE32OAnnoNPDW8s/uYTPDfyf7JPHlvM+36RdG0R7dq4Ns4YwzAMkzcORI8fIie2w5hcnRBSvz19sG3aCxzMzBQ4nW65Sf7SaOeu8L+HHoBneU/M/GyuysmB3Fez534vLTvvzPgUt9/WASu+ny17XCaLzC03tcN9vYMwedpHOHbiP7WVYw4dOSZ7Y54z73uMGDIQS+d/isBW9r8OSMy9FRtnDninY2AYhmEKBgeiR9A7DtlprfG6eCHTS9mUTL0zr8tPr4QMYxCyuvg2ayKHbHCF2rV8MOKxgfj8m++RmrFX5Zr6AAoZHC7HzGrbqqUUJ9SrMvWmrIcClCtWqICnnn8lz56S//hzG3oPfFyOp0WWolfGjpLN5u1BAdYjx74q++YhKxC18KLzZRiGYQoGx6KH8IvEOovm6rpOChmmEOgT3FU259Z39OcMo0cMkbE9L7wyRQY2v/Huh+g7eIS0ynz4ziR8++k0tGtju4POWjVrYNa017EpeRvGTHhTWodsQYONPjBsNKpVrYKf5sbJIGpHUDnPTpyMtb9vQYP6deUHRa8ed6ilDMMwTEGQt+gpA1Bz8pSUFGzduhVnz55Vua6jlZecnCx7Tmbyx/0hPaVYWbjYWECyNV6VK8s+dLb8tQM39wiVfesMvr8v1iR+Ld1XedGxww2Y8fYk/LDkZ4Q/+zIuiPurh1xnz06MRqeb22PRN6aYIEfQuVA5NEgpDR9yR6ebpaAb2L+PWoNhGIYpCMq06NmxY4cMZK5Rowbatm0rx7GqXbs2nnrqKdnHjrOQ0KHyvL29ZXkdOnSQXecPGDAAhw/bH24hL5o0aYKaNWvaTHkNmVEaaOnXXMa6fPZ1vMpxDnIj/fb7H3KampAPeyhMDg5avVpVmWeEkJ7dpPvrl7W/o9eA4UhWA5rGfPQ53nh3puzF+csP30YN7+oy3x5kMaLtF69YLeejIkcg5e8M2csznSfDMAxTcJRp0bNlyxY5PtVDDz0kxQN1KEh99FBPyo4GCLXHpk2b5CChgwcPxsyZM2U5NJbWd999h7CwMLWW85w+fVq2RKKBR61T8+Zlo6J8/JEB2L4zDb9tMIkXo+xMTUefBx+XrbPC+vWUHQh+OX8hflq2Sq1hHApuXjL/E3h5VUa/h57E/Y+NxNvvf4ye3e9A3Luvo0IFT7Vmbije54nICTLIef+/B6U7a/D9ITKGaMeuNBlwzTAMwxQsZVr0kCWGBhqdPXu2HGg0IiJCDv5JlhrKy8pyriffW265RZb3+eefS2sRDUWxbNkyafVZt24dDh48qNZ0nhYtWuDrr7/OlXr16qXWKN2Q4LghsCXeeO9DGVeWFxR0HBv3BXoNfBzHjp/EnA/eQsybL+G916Nwb68eePqFSZg913nLkV/zplg0b5YcxHTDH1tlXmrGHkyMjhFi6gck/bIWv27YJH+p/GcnvIXbeg7AvQ8/JYTPdrRt7Y+rV6/hgXvvwZRXXkB0zEfyvHrdbWxgU4ZhGMZ1yrTooV6Xr7vOctRqcm9RPzjnzp2TFhZnIHHToEEDNWfC09MTDRuaOrQrrQODFgZkGZn43EjZ6iqv2J603fuEyHgSU6bPQu+7u8pOAckaQ1AMzfToiXji0QF46c1peGbcazh3/oJcZpSdqbuxbOWvMtbno3dfkx0oLlv5G8a9OhWPjRyHQcPHyF8qf8WatWjfrjXeff1F3HbzDXJYi8cfeQDT3hiPH5f+LK1XLz37pDw/hmEYpmDhQGYbHDp0CJUrV0atWrVUjutQ3NDatWtxzz33oG7duiqXcQWK67mnx52YNOUD2czbGmoR9eHseegZNky6kEiQfPTuq6jp463WMEEC4+UXnpEtt5av+g1d+z2MpT//qpY65sR/p/C/0VGyVdcnMW9KqxGVk/zLQmxd8yOWfzdbjsW1bMFn+GvNTzJRsPQ7H3yKn9esl4KLmrLT8U96+315Pnd2Kv09axcFDZt2UlP5oziVUxrPieBrYx++NvZxpRwWPVaQe2v//v3SbZSfr+8XX3xR9sBMQ0X07NlTjumVH3bu3Il27drJYTPuvfde6UIz4uYpbUx55XlkXc1C1OvvqBwTe/f/g9AhI/H6OzPQ7Y7bpHWHBIkjSIys+P5ztPJvIYUMxdusXmd/nC4SVU+98IoUPrPffwt1atdUS0zUrV1Luq9uvrGt/KUBS/s9FI7hEePh17yZHLOL3FoEWYHIBffWy8/Jecb9HNy3QU3lj+JUTmk8J4KvjX342tjHlXJY9OigpuYjR46Ubiga2yo/vPfee5g/fz4qVaoEX19fmyNvG6VevXpo3769jOupXr26DL4eOnQo/ve//6k1yg716tRG9MTnZSAyxdCQ8Pvs6+8QdP9Q2fkgWVJmvx8tBYgRmlzfAF999I7sTJCajQ9+Ygy69H5QtsqiIGg9n3z1newZevKEMVLU2ILcV+/O+EyUMQiPPPm8bJ5OZVNfQI0bmVyfn3+TIF1bb74UKfsPYhiGYQoHFj0KqjyHDx8um51PnjxZWlTyw+XLl2WfPx988IFM5N6igSVdIS0tDb/++it++OEH/PLLLzJYmoTUnDlzsGGDexRzSYIsOP97+AFMmDxNBgjTOFe33XyjtO5olhRnoUBp6pX5m0/eQzshaGLi5uDu0KG4qet9Mj6HOjR8KyZOWoUaXFcXv6zdKON6SMBEi3wSOO3uDME9A/6H6R9/IdbzlcNZrPh+jsUgo+s3/YmX34qVxx/at6fKZRiGYQoDFj0KsuzMnTtXWnpcaa5ui6pVq8rm8M888wx+//132ZLLHVDfP889Z3KL/Pbbb/K3rPHquFHocmt7bN66HU8NG4yv497FdfXybzW5q3NHxL33Orb9mihjdqhV1bHj/+GjOfOkJejvtN148PFn8dCIZzFsVBSiXn8XcZ9/g+P/nUTf4G4yhmj7b4uktalrl1stXKTUNP3xyPGyE8NJY0epXIZhGKawYNEjiI6OltadESNG4P3331e57oM6FyQoVshdVKtWTf5euOBcy6PSArXCInFyU9vW+Hbh4lyuqPxCHRfS8Bdvvfw8Hnuwv4znoWmKy6FhJqjnZRqclAKV92xZKa1EtJyastvq9HBnagYGDo9Es8bX4+OY1+HpWV4tYRiGYQqLMi96SPCMHz9e9qlDnQkWRNNhcpkRWtN1d/Dnn3/KX+pMsaziXb0avvlkGpo0aijHvdL6zXEnZ86ew+Rpcbi1fTs8OvA+6d66+cZAtG/XBm1a+stg5ryemXUbk8XxjZIxPfM+fk8eN8MwDFP4SNGTmprq1lRSoB6YSfCMGjVKTtPQExTMrKUrV66oNY1BlqKvvvpKxvNoJCUl4bPPPpPByEFBeY/zZM2sWbMwY8YMiz6DNm7ciLi4ONmnUN++fVVu2UQTPoGtAjDo8Qh88e1CtcQ9kOvqxMlTeGP8GJcEMQVbDx4xBje0aYlvP4lhwcMwDFOElKP4EEqENp2fVJLYvHmz/CWXlpeXV670yCOPyOVGoYDjRx99FHXq1JG9Mzdr1kw2V6fWYCSGqlSpotY0DvUZRDFB1MfPDTfcgJYtW6Jz584yKJqarVNrrrIOCYm5ce/ikQH34cXX3sGTz70sm5Xnl8wzZ/HJlwvQ++677I7Cbg/qh2fEmAmyw8Ihg0JlCzEWPAzDMEVLmXZv3XfffTKA2V66//771ZrGiI+Ply4yGhOLOjck0RMZGSlHbw8ODlZrOQdtT620aNBSGhiVepAmEURllnUrjx6KkXnzpTGY8fbLWLP+D3Tv/yi+T1yer76M5sz7HmfPncezTw9TOXlD+0tYtBw9+g/Buk3JMu7o9agIGYPEMAzDFC0ep06dkrXCkSNH3GKpoXICAox9Fb/+Viwmvhih5goOaubdvXt32b9Nt27dVK7rUAeGVA6VSwOK5hd3l+fu8y1IDh1yffR5exw5dhxjJ02V41+RhSYq8kl0u72jWmoMEi+dew1E8ybXy6bnRqAxt9587yM5VAa1+qLAZupXyJ00aGA5bEpJxpm/f3Kb23s/ae8cWd5zoSqXYRgmN9x6iyl1UId/1CEg9blD4oWalwfdP0zG11BngUb47fc/sP+fQxgc1k/l2Iaasc/7PlGWT2NuUdzPd7Pfx2fTo90ueBiGYZj8waKHKbVQnzs0BtbHMW+ghndVGe9z41395LAQ3yYskhYhe8z9bhFq1/KR8TzW0HbkOnsicgLa3RGC51+eIsfiIqG1+JuP0aVje7UmwzAMU5woU+6tSZMmucV9RPE0FGtDLb5uvPFGles67i6P3GV0rmXVvWUP6itnwQ9LsGzVWuzZd0DmkVXohsCWCPBtjnp1aoEaaJ3OPIuZn82Vo6I/POBeHDp8FIePHsee/f/gz207cejIMbmtb7Mmsi+f0L7Bsil7YcDurdywe4thGKOUCdFDrbSoNVVZg867Q4cOaq54UpiiR0/a7n1Yt3GLjL/5a8ff2L33H1y4aN/1Va1qFTS5vhFuatsK7W9oIwWRX/OmamnhwaInNyx6GIYxSpkQPcSWLVuQmZmp5ko/3t7exV7wEEUlemxBTdS3puxExp5/cFO7VijnUQ6VKlVEg/p1i01zcxY9uWHRwzCMUcqM6GGKJ8VJ9JQEWPTkhkUPwzBG4UBmhmEYhmHKBCx6GIYplTRs2klN5Y/iVE5pPCeCr419+NrYx5VyDIqe3ZgZ7IPIpJxpHx8fBM/cLZcyDMMUNw7u26Cm8kdxKqc0nhPB18Y+fG3s40o5BkVPBlI3DUVfGkkhaTrGBy7AqVMLEDh+OqQOYhiGYRiGKeY47d5KWjQHtwb4iilfBNyagjQ29jAMwzAMUwIwKHqCEbMAGODjgwFzhmLs0y1MFh+Eolfh9MlWfEmPQZcuMUhXs3ni7PqM+9kzC/36zcIeNes0+d2eYRiGKRKMW3qCY3Dq1CmRYoQEUvNJT6N0ap50xHTxkOMoWacuMSxXigQSGg0boKFK/T42IDn04sRVobLyBfM+ZRq7Ui3IJyycGIZhCh3jomf3TAT7UABzMGT8clIkfIJnonR6t/wQuS5bDlaZnTYNnTtPQxpNi7Qu0k+twxQeKzH29h9x79pDOHiQ0tdonWZALjQfgZ9+GoHmatZZ9nwcgoaPAF/JfZrSV1gijoZhGIYpiRgUPbsxMzwBoVtOYcFQlRU8GpORgKVlKKYnPaaLzurTBTlGn52YarYMqXxrN5YNt5bN8tR6MeGUFy6qWMZEa/ia1UsPvP12D2UteQFj+5msMGNX7sHH5mmxmtmaIvJHv4LNm1/B7WJZv/n/yVJWjM2x4OQ24OzBih+BV9dOFXvLocfbOfO2tpdCSeU1bBgCaZBSx/GxXP8FIZqsjseI1YphGIbJNwZFD7XeCkQhjalYbPGLXGey/lBa3A5jpipJsn4bWn9hyk+bBowZYixmx355Y7CzP+XHobcpp4zTA70e+QqPkJCwViebd8J/+iEc/OoRfPXIKECbnqZ3HTXHE9Nfxc03v4q1Bw/hp4G1xHavIK2XsuDkWl+wJwk/btYLLSvsbN/8iUSzVejgV63xyofqeM3rk2iyOp4nXLVFMQzDMM5gOJC579A5WKRvn14WA5nJCqNZZvrMArbtMombzgMRorxefiED0Xn9TqSZZh1jt7xpeIHVjgU93lZCotcSkxVFEz8334sg0gzN/YWI0E3LhQ4QguMpzWRjb/2b/e27xuxtT1YdzdIjhBp2ppvElH59hmEYpkgwHNMTHLMFAW9T661NGN/BBz4DgAWlNpDZBiRQ/OdjYJqyzFCsj1rkEu4ur6zQY6oQP1/jka8KOLamuR9ab/4RK5zxPJHg0ccerX01b/HFMAzDFBrGA5mFvHk6iVpvaUm14ipL6Cw66Ynzsd40aYHMH9Hf5JbSWXxsrm+gPEZAYkLv1tqTjp2OrDD22Jxm6cJySA889Srwyu0Ug5PDyrGW87nQrE2CPSt+xGbTpG2cOh6GYRgmv+QhepIQ6RMp/k+/pqEnLBMtKyP4RWJiuzHwV+6oITvb5Vhm1ufk+88fiLQ4IXnE+l9M24Y+ttYnHJXHWNI8GPfufFgFB4tE1pTpTrbKaj4CY1RckBbInBcUn7P21Z2mWCKVHhFy1q6XivbR2hScTOuOTmtt39KjPx4OZGYYhikUPE6dOpVNE0eOHEH9+vVlZn6gcgICAtScY15/KxYTX4xQc0xZ5NChw2qKMUKDBtepqZKPM3//qampdt9P2jtHlvdcqMplGIbJjUH3lmbxYRj3Uq6cEx7WMg5fK4ZhmPxh8C0ajNGTUyxbbzGMG6hRowZX5gaga0TXimEYhnEdg+4tsvQMwBw1l8NQLLAKaGb3FsMwRmD3FsMwhY1hS0+MudVWGW/BxTAMwzBMicSwX2H3zOCy3XqLYZgSRcOmndRU/ihO5ZTGcyL42tiHr419XCnHoOhJwvTxgVhwagsm30ourVM4tWUybh3aly09DMMUSw7u26Cm8kdxKqc0nhPB18Y+fG3s40o5TkaQtoB/oDbZC6Epb5tGXGcYhmEYhinmGBQ9vgi4NQVpQuD4BmituHgQUoZhGIZhSg4GRQ8NQZGEp4XAafF0EvouonietxGwhQOZGYZhGIYpGTjp3jIRHEMtt0wiiGEYhmEYpiRgOJCZe2RmGIZhGKYkY1D0cI/MRqH+i/7++2/8/vvv2LhxIzZt2oRt27bhv/+MDXLJFB0nT57E8uXLMWPGDHnf/vjjD6SkpMh8hmEYpuRj2NIzffwmzBnA/fTo2blzJ2bOnInhw4fjpptuQpUqVVCzZk20bt0anTp1wm233YaOHTvihhtuQO3atVG1alW0a9cO//vf//DRRx/JCpUpGnbs2CHFDd0Luj9eXl6oVasW7rnnHjzzzDPyvt16661o27atzK9WrZpcj+51XFycvPcMwzBMyYJHWXeSv/76C59//jl+/PFHpKeny7xGjRrh5ptvlmKnQYMGuO666+Q6q1evxrx583D58mUcPHgQ//77r9yGrAgHDhyQ2/r7+yM0NBQPP/ywrFSZgoMsbnRffvjhB4t716FDB7Rp00beNw8PD/z555+YM2cO3nrrLfj5+cl7988//+S6dy1btjTfOxJHjHPwMBQMwxQ2xkXP7pkI7jAem9SsrXG3iNIoerKzsxEfH4/3338fa9asQfXq1dGzZ0/069dP/pLQ0UMi5/rrr8fdd98tRY8t6Dr9/PPPWLhwIZYuXYozZ86ge/fuiIiIwL333isrXyb/WN87stho946sOtb3jiCx2q1bN/zyyy/o2rWrys3h0KFD5nu3bNkynDt3znzvqFy+d8Zg0cMwTGFj0L21GzPDxyNwgW7crQXAgOCZYknphio1suIMGDBACpOPP/4Yhw8fxnfffYfHHnvMZqVJleGxY8fw+OOPq5zc0Av8oYcewvz583H06FF89tlnOH36NPr37y/dKitXrlRrMq5C8TnavcvMzJRuKbp3JIKGDh1q894ZgbZ75JFH5DNA946eCYrZuu+++3DLLbfwvWMYhimmGBQ91BHhUPTVm3WCR2MyErC0lKoecmmEhISgV69eKFeunKxAt2zZIoUMxe444pNPPkGLFi3Qo0cPleOYypUrY9iwYdi8ebO0IND+yEpElShZFRjnoHtH1jKy5JDVhYRrcnIyRowYIeOq3AnFAlGcD5W/YsUKi3tHx8EwDMMUHwy33uo7dI5V663S2yPzl19+KWM0qPXO3LlzZRxHcLCxbhgpboSEC4kjV9wcJJSo5Rftl1p/UeDzt99+q5YyefH111/La0bX8KuvvpL3kNxZhQGJHbpndAzavfvmm2/UUoZhGKaocSB6qG+enJZaA+bAqvXWAIisUkVWVhZGjhyJIUOGyIpy+/btGDx4sFPi5dVXX4W3tzeefvppleM8tD/aL+2fKtIHH3wQo0aNksfH2IauDV0jcjvRNaNrRwHGhR1fQ/sjtyWJXxKwdB+pNRjfO4ZhmKLHgegJRowWv2M3lZ5hKOh8yB1C8Rkffvih/EKvU6eOWmpymSQmJuLNN9/Ek08+KWNvSBiR+4umKe/FF19EQkKCdHfUqFFDbek61MydrDwUi0KpT58+8jgZS7R7R9eI7h3FSdWtW1ctLRro2VmwYIE8nlmzZvG9YxiGKQbk4d7SemK2tPrkpNLRTw91Pkfuq61bt8q4DBIwBFkLxo0bJ90U1LSZWuZMmjQJP/30E/bt24fz58/LANn9+/fL4OW3334b165dw7vvviubM48dO1bGAeUXikXRYoqCgoK4szwdJCS0e5eUlGS+d8UFOh6KKdLuHQsfhmGYoiMP0UPWHrLm2LP6lHxLDwkIqoxIxFAszp133in7cencubMUO9SJIDWHpV8KNKYWXNTfDgWu/vbbb1i3bp2s0EjoUPNocm9Rh4XU7wv9Uush6qiQrA+03FWoCTW1CqLjJAsTV56Qrd1I8Ozdu1feO1vNy4sD1Jxdf+/ouBmGYZjCx2Agsy1K/nhcFGdBzZk1wUOWG2ouTu4qis2ggGatiXN4eLjsxI5aWllDzdOfe+45KW4mTpyIp556Srq5KJ86uSMGDRokmzNTHzCuQp0XUjN5Cs69//77y3SciHbv9uzZI+/djTfeqJYUT+jekSVq9+7dCAsL4xifQqBh005qKn8Up3JK4zkRfG3sw9fGPq6Ukw/RU/KhzuSowzoSN2TJueOOO6TYocqJLDgUFEtNkvOC3E/k5po9e7ZF4CxtSyJlw4YNsgNCgr76SRRRh3bOQNal3r17S4vS7bffLq1MkZGRamnZ49lnn5WdB1JfOSWlJ2saqoQEND1zY8aMUblMQXFw3wY1lT+KUzml8ZwIvjb24WtjH1fKKbOihwKVyf1EwicqKkpaZGJiYqRwSUtLk7EY1NcLuSMolofmP/jgA9kqRw+tT/E80dHRaNWqlcrNDQXaUjPmd955B1988YV0n2VkZKiljqH1ydX266+/yvGi6Dc2NlZOU/PosgYFd1MPy3Q/yO1XkiAXHD1ndOxl8d4xDMMUJQYCmfWBy/pUcpusU0ssappOIoXGYqI4HbLIUOsfEhfU3JzG1qKOAS9cuCBdXCRsqEk0WRVojK3p06dLaws1R6Ym0qNHj1al26d8+fLSQkF9yFy8eFEOSEquKntQ9/rkaqNjo36DKFiXjo2sSWQtGjhwoNxvWerAkM6V7h2dO1nYSiJ0D8vivWMYhilagP8DLCOxkBFWXPcAAAAASUVORK5CYII=;" vertex="1" parent="1">
          <mxGeometry x="40" y="245" width="573" height="360" as="geometry" />
        </mxCell>
        <mxCell id="g0Y9ytgMzjQodCcQfiRF-2" value="" style="shape=image;verticalLabelPosition=bottom;labelBackgroundColor=default;verticalAlign=top;aspect=fixed;imageAspect=0;image=data:image/png,iVBORw0KGgoAAAANSUhEUgAAAgIAAAH/CAYAAAAlobWWAAAAAXNSR0IArs4c6QAAAARnQU1BAACxjwv8YQUAAAAJcEhZcwAADsMAAA7DAcdvqGQAAFdmSURBVHhe7d1/cBxnmtj3B4BAce3bPdjHc+zEG3KHAJcSlpeqsZAyua4wPHlUJMDcccoFqkpXp0PCmFOGK9xhKkJMyEurqBPoopLiLP+ADe7RwWlrlSqiymBc/BVOeDSrvKQTyJP1cbGiAAhLnuwoFXNt7GrvliJAIe/79ts93TPdMwMCmAHQ389eH/rHO2+/3UPhed6338E0zf/Zx4uLiyLm/yn6Z9R68Kf5Ybj7AABA/TU1Ndk1ve7+dFb8P0PXn/ypTgTKg3/5ttkM7Pf/BAAA9aFjrxvIXf4gH/zprPv3B7Y//8WMqi8Y+L/44gvzU+/S6+5+96d/3f8TAADUnz/Iuz/9i9bcHNzn7m96/Nm0iuNur99JAr74IrjtP67+L7CtqTXzEwAA1J8K685PX5B3A39zc3Pgp/o/b9285pc/n1LxvBjwnz79Qi1PvW2dFJh1/T8b/J2FEQEAANYCL6iXBPrmpmaz3tLi/HQXXcYpqxadCDijADoB+EIWFhacn08XzD4vEfASgOCi2R8AAGCVubFXKyYA5kcxuKvFDfo6CXiu5Tl57rkWu+381K8xZf/sZx+ZRMBNAhYWnsrpM//YqREAAKx7/332v5bW51pNMuAmAl4y8Kdz900ioBOA+fl5mVfJwLv/8x/I2e+M2JcDAID16vi3MvLf/d3flU2bWgPJgDdy4AzxO0MN+qeeHwAAADYOZ+6f86jfXdxH/CYR8B/QBQEAwMbhfhDg6RdOQuAmATYRcEcDVEKw6CQDAABg4wh+GrDY+dfsowF9oJgdAACAjaMY/N1Ovxv7v5BmXcBNAEgEAADYeEwCYJbyPwfQNPfvfrSoPzY4P78gT+bn5fPPP5fhf/x+TZ8auPNH/5t89H/kpPnnM2qrWgLRJF98pV2+/jezsuc3f9vuAwAAq0l/auD3fjctzz+/yXxyQC/67wq4f2Og6T/8f/fKEoF/NPK/Vk0EdBLQdLtPdv8nc3ZPbe7+2zZZ3DtKMgAAQB3oROB3f+e3ZfPm552PELbajxA2648RNhfnCJj/mXX7yiru58/WngQ8/xdFum+I/JW98tf/4zmZvPEdewAAAKw2Hd/deQJe3Lcx38wR0PwHatH82azMLz4nX/zK10RS/1Rk7/8i0voVe9Rn86+LHLwl8pf/hiy2bJafPf1V+eKzT+xBAADgp//Iz7/6V//KbpXTx3SZpfAHfm/dDgCU/EEhZ6nF4y82yX9Y+Ivy5KX/Seb//ZTKDFpFXvw79qi1+S+pJOCPRH61QxZvpOVnD/6lPFl8vvI5rmW8v3bU1JSRa3Z3Q818R77Z9E35jp4KsWKuSWbF69xoKt2jpd6/Ot3vVfm3AiBOPvjgA9n9zb8RmgzoffqYLrMUYSMB7ro3IuDSO2vRrDKJzc2/lKbPfypP2zrNRED5Cy/Yo8qX/iOR/0olAV/ZLot/9Jr84mc/NUlARfqXaLfIVdu4xekXZapiJlCnX+7t35IfLP5AvqUusb42arKwka6r5Foa9m8FwEbx1/7aX5O7P/gXZcmAmwToY7rMUpQGf3+s9+YILNXzzZ/LV1o+k6b/c0Dm/5+78vTTuyLbXxXZ+bdVEmBHAr6cMEmAvPh35c/91mWR576kPzsgrU3ztpYS0z+WO3telA67qX+pfuuAXQcAICZKk4HlJAGaDvOlSYC7XjYiUKuniy1qaZbHT57KL//4D+TJ3TdFrv+WyNxHIj03VRLwNS8JkL/yX8hntwekaeFPpe25OXmuKeL7DA4ckqN3svJ7YV1FM+Tqf2Sge2Ldcl7uSLZD7cvooYPSnqZ/265fK9bzzdAu6Yx855vueZrEVFulHl1m5jvf9F5TrLdSe4KuZYrnLF5L6fUpgfvgtk9z6s5kdDv0/Qm7jhJl99R5jdd+/Zjmm99Re62y8q5q90xzt8Ovq/z6faarvWdKZNsiRN5HLfze1fYelVx3lffrO98pPgqLvDYAseRPBpaTBFTzzInAk8VW+enCFnm8+CWz/csvviRfPPq/Rb55znsc4CYBP7uRkZY/9+vy5dbH8tnTL5skItwBGVmclsMXO8p/aXZclMPTNpu5KvL73+lQZa/KUdkjOb1/pJahA/UL+/dF/lDXMZ0Tyf5eeVC+9q5kv3HVy5TCq/XVc/WonO9ukt+TP7RtOyp3su9WD0QlDow451vU13T+91W79L0ovT59H7Lyjau2rLqGH3X7g+0d+dGLuh0jcqDqdYTdU5Fv/eCqfMO0Xx3Xj2l+8C1xRrnDyusT66DZIRcPT1c4l1/YdYVdv9mt1PCeRbYtSqX7GH09tb1HfpXOo6lr+/Eh59gz/rsBgOV65kRA9+o3N/3SLHq4f3HTX5Cn3TdFfvXrZUnA8//pPvmVve/K51/9W7KgEgidRERrV8HI/aVpk4GZKfmR/qWpe12699St+mA/nnaKL4n6hf2HNrC1f0v+/tE7UlZNx4uy53x3ld6Zrx49iqG2D/fYh8Jm+0cyVenlYbxJkrqHGcHch6NyyI03Zdfga0e164i8pyq4qUDardohV1VC4ZSOLj9zRS7eOSp/f7kPxSOvv4b3bKn/Pirdx0rXU8t75FfD+5V7wx581n83ADYs/+MA/2OClfbMiYB+zv+V5z4zix7u//P/2X8rMv9LeXrjb8n8X3hJ5pu/LD/7349Ky6Y/L5v+Yrv84gcn5fNZp79T04ce1C/NP8ztkfOX3D7S0eIkQr1U7nbWYEamfmRX/dR5f6Dq/0PVx9e/9IujEqtIDx97kySnRV328tV0HUu9pyv9Hlg1X3/Ee2asUttcq/EeAUCE0jkBpXMGVtIzJwKepuekdefvyqaf/Wt5+s/2ymcPfiBz/9c5mRv/LZn/yRVpnf4D+Q//9Lfkl//a6UOZUYTmx2a9zLXv+IZNZ+TKxTuy58UOFdR2yDdUH6zycK/WIS/u8fW4rl0q6bndkYtXbB225+f11kq0f+sHMq1+2/9oWV20au2x/JMkTbvM3nL2Pni5kQpOv38++hq0yOuIvKf2kYAeX+/2PWuPKt/eI4f3hNVT47VrFa+/hves5n8fVqX7GHU9tb5Hfs/wfgFA1MTA1UoGlpEI2H69/tsBz/15ee4vJWX+r/62PJf8H+X57Qelte1r8qu7/54svPgtaf5LL8mXf/M78it/+UX5cstnxdeWOrBDfuwO7zZ1mGfcPzBDtAdkxDwfduYOmMV0cQ/IoaN2SNhst8u3/r7zzN6UuaT7iX575Bs/dnrITebZrW/o2+X7OwYd2W8sc8i7WnusA29ITrLSocv83o/lG15vs/T6nPugH5k416Cfi4dcg1b1OsLuqUrEVLf3R7k31NED8kbuR9LtTRaMeg/0oxw9r6C43xl9qHTtJdcVef1aDe9ZZNuiVLqPEddT83vkt4T3CwCsl156qSwJcLnJgC6zUpoeffrDxYWFpzK/MC9PnszL48efy3cvXKz6XQP/5MR/Kf/N126L/Mb/IIvzn8ni9tfks3/9h/J8+2/Jwk9/LM//vzdkYeffkc/+KCstX9kqX/nPvyWLf3JdfjH1z2T8T35DjvzDf25rqhfV0236fXlxms94AwDiQ3/XwKu93d53DbjfN9DS0my+b+CZRwR2po47XyD0438kj7/ULp//7N/Kk09uycK/+efypU0iP5/79+bvC3zpN/62+ZsDi3/6qfzi0Z/IxL/9srzwynFbCwAAaKRnHhHQ9DcQfpg/Jws//xMzQUvTkwi/EOdvDGj6IcDzzY/l88UvSdOXvybfeOXvNuibBxkRAADET7URgWUlAgAAYG1btUcDAABg/SMRAAAgxkgEAACIMRIBAABijEQAAIAYIxEAACDGSAQAAIixyL8j8NapM7YIAABYr946OcDfEQAAAOFIBAAAiDESAQAAYoxEAACAGCMRAAAgxkgEAACIMRIBAABijEQAAIAYIxEAACDGSAQAAIgxEgEAAGKMRAAAgBgjEQAAIMbqlwjMDkuqrU3a7JIani3b19aWlXxZWbtPy2d9ZdWSVUfK6tBLSnT1z0zXmRoWrwr/dukxAADWsTolAnnJJsclXZiTuTm9jEnn1MfOoa4hKZh9ahkT6dVBNtEv+cKQdJljOUmpYrPDKWnrFRlzy6plTK44SYK/DrPkpT+hD6wC3bZ8v6xW9QAA1FMdHw10SocXPVOSy+nwXiLVI30TU2JTBJ9ZuT4uMlRwkgJXKhfcrsQkEu6Igb93XzaKMCvDmUGZmBiUpNqfGr4d3H77bWdEwI4MDGfd17eJHqAwAvWqxZ4vtA0AADRQ06NPf7i4sPBU5hfm5cmTeXn8+HP57oWL8tapM7ZIdY8ePbJr4bZs2SJ5FTB7R9VG35jMuUmADpgZkRHbw9aBMjmeloLe9h/T68kpGbCjAwHmmArUdtPQIwT+XnvJ6/PZrEiuR660XZEet87S8/naFXpsRCSjzts5NifmcvRjizM71Hk75JwzdOHsD5QvbUPxeqrdQwAAXDqu1uqtkwPyam+3bN78vGza1GqW1tZWaWlplpbmlpVLBGpulA6YOiPQCcGx6WAQ9wfwSoHZr9IxT16yKjiPSp+Kz77AX5pAuMdL6wxriw7sYWWi9tsEIdAGAACWaEkxV6mWCNT/UwOpnOg5An2jIc/3o4J5okM6J8bl+jOPpackZ86hRwH00LydgFg2t2AFAvTHUyXJhSuiDQAANFB9EgHdK/YeoCuz0zLZtUO2283qUnJsSGQwGQyeeni9pmCqzp81EwB0MC7IUNekTItOLgblXFQFpXMVQucuhDDzHEKSlrA2MEkAANBg9UkEEvslPdlbnCinP0EwEtH713TioIftzQQ9J9gn+vNSGJqUXrcOtfRKj9ODtxP5vPpLPz6Y6NBZhD2WlPH0iPQnVEAuDMlkr+917gS+RL8M9I2ac5mPOfq3v/9TU2U0Ve9YpzqdrdN9/BDaBvMCAAAapv5zBOJGz4m40lOcIAkAwDKs/zkCMaA/IeGNMugPEJAEAADWKBKBVZDKrfAERAAAVgmJAAAAMUYiAABAjJEIAAAQYyQCAADEGIkAAAAxRiIAAECMkQgAABBjJAIAAMQYiQAAADFGIgAAQIyRCAAAEGMkAuuB/lpm9yuS/aL2h1lKWQBAbNQ1EUjp7/PX3+/vWsngtF4D3UZoN0kGAKxb9R0R6OqTzvGM+HOBFZPol3y+XxJ2E3XEvQeAdavOjwZ2yLGBThk8l7fbPrpX6X6Hv15sD3N2OBXcZ3qfWcmmimWzurpArzQvWfc1/uPevlR4MhJaxqnLG8kwZeyxyDpLzv89f9sUr62zMpwZlImJQUmqcvocgesN1Dkl57xrDml/LdfnCpTNqta6yu9beHtK2v3228XrC6vbXu9w1t1v3xMAQMPVf45AKidj0lsSCFQASg5K55j9Dv/CkHTp3SqAZAY7Zcx+t/9Y55R8rPdPTMqOEVt2rE9Ge/3BTAWpVK+oFznH1ZJL6fqnZMBuzxXSMp7xBWYjqkxKcqo9KntRJXQAHJd0IS/9iajyIef/pj1FmYT0j6hr7RqSgiqX70+oznXee93cmC9p8l2zaU6g/bVcnyt4rwtDk9LrZEoh90139sPaU9Lu3/k1U3N03YpKGqZ63HrUe3Ymqn0AgHpqyGTB1LEhmfQHgtlpmVRB5ZgKPAGJDumUUem1PctULqfCstKVlv3uOHSqR/pkUqY/sduz12VcSurS9Zt6bI9UBauJCZtUuCqVSfTLiA5qbUkZT4+oJKBC+bDzL4W/R907KjI57dwn3zUn9qely9/+Wq7PVXKvTV2jVyQf1e6o9oSJqltv+N/f7TucRA8A0HANSQRMYE2Py7nrdvvjKZmwq0GqN256oz1yxQQjf89/iWzv1evdztmkwq9CmURHp13zqaXOpdBBN6lHHGx97shILVa6Ldpy2gMAWBcakwgoif4BkUHVc9Ubulc/MS7XS7uaKhBlzUNpnRAUZKjL1/N35a/IqO4tf9VuJ/ZLWgYlMA1BjyxMlOwrVbFMXrJm1HxMOgftZMeo8mHn13w99Nnr48HEx9979/X8y8pZZn9fTzHQ13J9rpKyXl1R7a7UntJRh6i6nU0AwBrUsETABPexPt96pwwmfUPbercKLGqns88dltcBXwUbPUnNGa5WATowY915fj3Za4+rJZt3nvP797mTEYuiyqgkwJxE97DdduqRiajyIef/2H204GxnpjqLPetEvwz0OcP6qev7ZaCzeG2Bcr5rTo6npaAf4HtquT5XsGxSz8EwdYW3O7I9/nZ//6d2Z1TdAIC1qunRpz9cXFh4KvML8/Lkybw8fvy5fPfCRXnr1BlbpLpHjx7Jli1b7NYKyGel7UqPzIUFET1cnREZ4eNqAIAYWmrMfevkgLza2y2bNz8vmza1mqW1tVVaWpqlpbmlkSMCQXnfR8ucDjg9SQAAVtuaSQRSuRonuvHHawAAWDFrJhEAAAD1RyIAAECMkQgAABBjJAIAAMQYiQAAADFGIgAAQIzV9Q8Ktf3DT+0aAOBZzf29v2LXyvF7dv2q9L76rfQfFKp7IrB4eqfdAgAsVdOJ+yQCGxSJAACgqloTgYd/58+Zn1j7tv6jPzM/G5UIMEcAAIAYIxEAYqCpqcmuAUAQiQAAADG2vhKBmZzs2ZOTGbu57i33etbq/dDtSqYludy2bbT3G0C5Bxcknb4gD+wm6q+xicC1jBmy9JbMNXsg3MzliyK/+e/kdf9rmjJS+VUNpANZoK22vSsU4Mz9OHxQ2vV6bk/gPHtyqxg+S66r9FymXd0vyma7HbCEa/df36og0QBWhw7uW7fKVrukL6xCmCeBWDENSwRM4OoWubq4KIt2uSqXKgb16Q9VXNj36yK7z8q0+7qrKuas5V/m/raaZUQOtGflzp3ssgOcuR8H28297Lh42Heeq7LreMcqJQPXJNNxUQ5P+8714bQ95vDepzBLuHb3+lbNCr0PAPxuyYm9l+Xg7Yfy8KFeRmXnzE/sMaxFDUoEZkR39s5Oq6Bo92gHRuy26XHukWAcuyaXzu+Sr2+1m64Dh+To3Q9l2vbuchnb69bHAj1X38hBYL9adCIR8vpgL9u2x5TLSGaPsz9zbUZy3rqpvTp7rsDlBdpUvPZAGwKvsfej/Zq8e1zdy/f8Ae2AjEyfFbl42bsu73WBbRXUvXM67Y8+n58+r13V5xrxv4v+9+lDedfem+D9U/Xan879dpbg/bP1SIVygXumFtvesmsw5yq+Z3oxdVS5F8H6S/89hqlWh+/fZcVr9wltg3MeL9EzZXz3t6w8UG87JbHNrso+OX16n7MaGClIS9lAQeRxlVx4+7fKiVsP5MLxU1IonJK9antVRhxipDGJwMxluXjXH0xqcO2SnD96KJA4aDO5t+X87hekQ2/cPS4fHrK9bv3LsuO47Lrq9Fynz96TbvPbNrh/UQXM3fq1WuD1usN4xymjl6u75Pi79rf13Xvywnt631E53/26iLv+dkjgVHV2eL+Y9eJLSDy6TR/Kt91zTR+Wi687Aez147u8UZOru1TCY1/h3Y+Zj+Te7sNS1nFu/7rs0gmS3SynExgzJONd40hHhfN5Dsiho+elW19LWPTyv0/ufVJ16bzkuL4mU8jy7rdaSu9foJ6wchHvY9Q987XFed/870PIvTgQ8Z7YV5SLqiPs36BS6do9UW2wid7xd1UJdd7X9QjNHcmqpHBpbQZWwz555bX3pU8H7RO37D5NjxTMyDEzSqCW2wfl8nH/0H7UcRX0030io3a/Wk7v2yZHzp6UZPKk3Fbb40e8rAPPoHFzBNzgHUYP2S7qX2x2W7l26bwcPWTTAF9wNUPi7vDu7rPyhpspmABZ3G4/eFh2n78k10r2B5Tu9/euus+L3PvI+aXqBt6OF2S3f10fKxX2aMAe8ug2iQ2uelHB464O4jqYm/1O0PJGTJTA/XgWOhmTkuuNOJ+/h617oQdG7LUcuuTs9yUEgXb5EhRz/0sTE//9Lrl/wXpCykW9j1H3zJ8s6VEkdcc/emi3w+5F1HtiD5eJqsPXRu/foN6ocO2eSm1Q/428pxOLpg65ePg957+VpbYZWCX7Ttug/coNpxevE4IHs3JfbIKgl726Rz8j3kODqOMPbsplOSkZO6iAldeYRMD0Vi/K5Zq7KjPy0b3d8oKbOahfol5wXeoz3ukP5a5drUgnAf5n4f6Rg9Xgvyaz6ACmen5m/ZBcMr/c3V6s735E3UsThCokW6HCz+cfGbnjz84OjKh9V+WoG9xK36dnVkM9ke9j1D17BqHvSZ1VaEP713fZNZ+10GbAte+0SghG5bX3b6j+vmJ78G7P/uHD0xKI79WOY1U0aETggLyhRzY7gr+kr2XstumJ+55vmt5WyPB3JSZAHhd3NF/PQL+rh5rNnIIakxBfL9K83lldeSVt9aj7kDE3QQe3aTm7W/Vi9Wbgfth7GRgCtkPS37ZJkq9X6F1H+0FVQ8k5o87np98b/yMBf8JR4X3y7r/drqiW9zvqfQy7Brfn79KPHfR76843CbsXUe9JlBrqqOkemH/79r+Dim1Q77F5EqEnhr7u/Ley1DYDq0E/5/c/EtA9/WS7fG1bQnYWTsmI/2mBX9TxbS/LQYl4nX9Ewc/MNTjhJB9ate2Ya9ijAd3LNM9M3WFMtXRL+C9J/Qt06R8jU4FA9eLvdTt1d+jnxmZSm9qvn/d32PPq4VPnBUHtWfn2ruIjiNc/3LWKIwLBtppFT2JTv9hVQ+2+4hBw6f0w9/LwRd9cBOdZtblcbwjZOVa8jnbJvhc8Z2Y6/HwBOuDd6/Ze06RHTexExbL3SQWlwCOcwKTCaLW93xHvY9g90wHf1xZzewIjSSH34lrEe2JfUa56HcV/g7WKaoNKAsxF2FEjcx908rDUNgOrQAfu+33exL6t+hMEZ4/INj1p8PZJud9n9+sl8PG/qOPOfAD/fpNnbDsix+xcBCYLLs+6+NKha5kmuXTIBraVpv+WwaVDsrgqla+OivdD9yj1/MUGfCxupd6nZ6qn0vvYwHuyVuikQD8qwPrHlw5tPHzpUFX6Y2RHZTnz4krpQOP1mEzHagUrX3VV7kdgJKOeHx9bqfep9noa8z7q3rjvvN7CR/UArE98DTEArCOMCGw8jAgAAICGqfuIAABgeWoZEcD606gRgbomAgCA1UUisH6RCAAAgKpWOhFgjgAAADFGIgAAQIyRCAAAEGMkAgAAxBiJAAAAMUYiAABAjPHxQQDGzZs37RqARnn55ZftWjT+jgCAVaETgZdeesluAai3Dz74oCGJAI8GAACIMRIBAABijEQAAIAYIxEAACDGSATWstlhSaWGZdZulql2vJ7WUlvQeLdOyNatW81y4pbdV4sHFySdviAP7CaA1VfXRCDV1iapYV+oWMngsd4Dkb/91a6l9PhSXgvUSgdlG8yXFtRvyYm++3Ly9kN5+PChnN5ndy8VSQFQF/UdEejqk87xjPhzgRWT6Jd8vl8SdnNdq3Ytpcc30rVjbUmelNsqmOuA/vD2SbnfV0My8GBW7stOSWyz20BM/fEf/7FdK1fpWL3V+dHADjk20CmD5/J220f3ZNvapM1dbK92djgV3Gd6vFnJpopls7q6QE84L1n3Nf7j3r5URDJS7XVZVcLu87Uhm5+VYW+9/Li33xzyXY/XDvX6zKBMTAxKUu1Pvf2271qm5JxXjy0fuFbF2y6pZ/i2aZd7buf6Sq692rW4Zcz59WLvgebfn1TntbuD5aPuNdadbUdkXCcD52wvPTBikJYLZuctObH3lBTkfenT+1WP/l9cSPtGFWy50t5+We//gVw4ruopnJK96nVpp3Jg3fjFL34h3/ve9+TGjRt2T5Hep4/pMmtB/ecIpHIyJr2+4KSpAKUCSefYnMzNqaUwJF16twoomcFOGdP71DLWOSUf6/0Tk7JjxJYd65PRXl9w0sEw1SvqRc5xteRSuv4pGbDbc4W0jGd8gdSIel2xXYWhSel1G+62wZw/I+Kun7H1RrQx0Z/36p8bc5OihPSPqGvuGpKC2p//nV/TNTh89ajbIoNl7fYrqad/r/QPqHNfsW3OX5HRvgHpLx06qHgtUfcg4j0z+6vda6xb2xKyszAjPzEBf0aOeaMFB+XycR3I98lplSwk3ZGE8SPyN46MO2X0MrpTTo3U8nxhmxw5W6xn/AjDC1hffuVXfkX+wT/4B5LP5wPJgF7X+/QxXWYtaMhkwdSxIZl0A6Y2Oy2TKngdS9ltV6JDOmVUem0vNJXLiSnSlZb9bjBL9UifTMr0J3Z79rqMS0ldun5Tj6/3OmGTClfU63ztSuxPS9foFdMWrw3bd6jA61vXx7SwNuoL9veWe0dFJqcrB0lfPeb8pe2uRp/btjl/ZVT6ekpvslLpWqLuQdR7Vsu9xvpnhv9tr18vehTAJAgh/CMHfe+L3J/19fyBjas0GViLSYDWkERAP9MeSY/Luet2++Op4rByQEpypmfZI1dMYPH3/JfI9pJNL9UsNqmop09UEpAcl3TBtsHrRa+mlPT0jcoV9Y/vymifhOUBK24t3GusDp0AJNvla3rdP3/ALKelbF6gTgL2XpaDduKgnmeQtIeAOPAnA2sxCdAakwgoif4BkUH7XFn3WifG5Xpp11j1nrPmAbNOCAoy1OXr+bv0cLfuxX7Vbif2S1oGJTANQY8sTJTsK1XD62avj8tEX8/Sg5q/jb4evqnPWXVU6TnXfP6SeswITG+vTA4dW3rbo+6B2V98z7xrqeVeY51ynv/vPHZEtplHBKekplH+5EF52Y7sP7h5WQrOqohvBCGw3y9qlAFYR9xkYC0mAVrDEgET3Mf6fOudMpj0DSfr3SqoqJ3OvrakjKdHpF8HUzsZzhleFxkLzJh3npNP9trjasnmVf2q9+3f505GLKr+uqSer5CrMZSGtTHRLwOdxf2Zqc7iiIA+pnruekg99f2f2p2Kr57keFoK1c7vr8edpaeTnK4uSXvPKpYi6h4E37PitdRyr7Fu2Ml6zkS/c9KuevbOxwGduQD6UwTeRMCwj/ptOyLHdhbrOD6z0xkRUPvPnrzvPVrw9vvp177mPH5gsiDWO50ArMUkQFub3z6Yz0rblR6ZCwt6+hm7ns+2lj8ut9baqO/nmR1S4COGqIBvHwQaK/bfPpjP+nqQugdda88bVZlJggMkAQCAcmsmEUjlapxcth7+eM4aa6O+t+RVAIAwayYRAAAA9bc25wgAqDs9RwBAYzVijgCJAAAA68iGnSwIAADqj0QAAIAYIxEAACDGSAQAAIgxEgEAAGKMRAAAgBgjEQAAIMZIBAAAiLG6JgKpNt9X42r6W/pW6itqV6ou/U197pcf6SWbD69b7/PKZWXNf/3+St5rAMCGUd8Rga4+6RzPiD8XWDEr8EU/s8Mp55sPvS8/mpMxuRIe5PX5CkPS1TUkhUpfkgQAwBpW50cDO+TYQKcMngsJrYEetlps79UEZ/8+07PNSjZVLKs77cEeb16y7mv8x719qZBkZFauj4sMFYJBPZV7hiAf1UZzyHc9bjts24fNVzE7owvR5Yr1ZvOzMuyt69ptmdLXqWsbzgzKxMSgJNV+MyoTVq5aO7z7CwDYKOo/RyCVU73s3mLgMlTgTg5K55jtieuett6tAlNmsNProY91TsnHev/EpOwYsWXH+mS01z80r4Oj6dZ7vfpcStc/JQN2e66QlvFMSVCbvS7jE53SsVLfHRzRxkR/3mvX3JgvKVJBeqpH73cSj+hytl5TZ0bEXT+jryfqOhPSP+KOXsxJvv/j6Pvhb0fU/QcAbBgNmSyYOjYkkyZwWbPTMqmC1LHSrneiQzplVHpt79TrnXelZb8bsFM90ieTMv2J3dYBXUrq0vWbemzPViUdExMhQa1rh2y3q8sW1ka31+22o3dUZHLauQ+l1x9Zzta7fYcK7L51fazW66xUzt+OqPsPANgwGpII6OfrI+lxOXfdbn88JRN2NSglOdMb7ZErJmj5e/5LZHvDXi+79Lm+DnoT43Ldy05WwScquCfHJV2wbXBHPkrpJKCWcmGqXaerpnIreP8BAGtSYxIBJdE/IDKoeqJ6Q/eYw4KwCohZ8/BaB6SCDHX5ev6u/BUZ1T3jr9rtxH5Jy6AEpiGYIF+yr0xKjg2pJiWDwS6fXYHg52+jb6Rg9vp4RAKk1FrOr9p1ur3+mu6HEnb/VzNRAgDUXcMSARNcxvp8650qCPuGqvVuFbDUTmdfW1LG0yPSr4OpCmJ60pszbC4yFvi0gPM8fLLXHldLNq/qV71q/76wiW/6uXxhaLI4ZK6WXulRrVP859Q9Y9Nr10Pqen9IshDWxkS/DHQW92emOsN7+rWWK1PhOnWdfc7jgNTw9pruR+j9L95oAMAG0PTo0x8uLiw8lfmFeXnyZF4eP/5cvnvhorx16owtUt2jR49ky5YtdmsF6M/yX+mRuVzIoLYOwHqO3DI/Kriq1kMbAQDr0lJj7lsnB+TV3m7ZvPl52bSp1Sytra3S0tIsLc0tjRwRCMqbj6zZRfegw5IAAACwotZMIpDKVZu4Zuk/5LPWe9rroY0AAChrJhEAAAD1RyIAAECMkQgAABBjJAIAAMQYiQAAADFW178jcOZM7XUCABA3AwMDdi3aSv8dgbonAu+8847dAgAArjfffLMhiQCPBgAAiDESAQAAYoxEAACAGCMRAAAgxkgEAACIMRIBAABijEQAAIAYIxEAACDGSAQAAIgxEgEAAGKMRAAAgBgjEQAAIMZIBAAAiDESAQAAYoxEAACAGCMRAAAgxkgEAACIsaZHn/5wcWHhqcwvzMuTJ/Py+PHn8t0LF+WtU2dskeoePXokW7ZssVvRzpypvU4AAOJmYGDArkWrNea63jo5IK/2dsvmzc/Lpk2tZmltbZWWlmZpaW6pbyIAAACWZ6UTAR4NAAAQYyQCAADEGIkAAAAxRiIAAECMkQgAABBjJAIAAMQYiQAAADFGIlBPs8OSSg3LrN30RO0Ps5SyAABUUddEoK0tK3m7LmotG9he59ZrgPa3myQDAGKnronAWN+onBl2wszs8Bm1Iycps4U1IdEv+Xy/JOwmAGDjq2sikMqNSedgRobzw5IZT8sxkwXMynCqTbLe0IAeKUiJky/o9TZps4spo3ut3j63XInQMk5dKfcFpow9Fllnyfm/V9Jj9nrQ6hoygzIxMShJVU6fY3Y45b0uWOeUnFPXW77fquX6XIGypaMt7n7nvoW3p6Tdb78dHB3wytu67fUOZ939/vcNALAe1XmOQEqODYkM9o5LesTteSakf6BPRq/YiJK/IqN9A9Kf0AlCr8jYnMzNOUsupQJcckoG7PZcIS3jmdKh7KgyKckV9MnPqRI6AKo2FPLqPFHlQ87/TXuKMuoaRoakq2tICqpcvj+hOtd573VzY53qtPb6JiZlx4iz3zQn0P5ars+lyw5Kp21fYWhSep1MKeS+6c5+WHtK2v07v2Zqjq5bUUnDVI9bj3rfzkS1DwCwHtR9smCio9Ou+aR6pG/0igo/Og8Ylb4eFblmr8u4DNlRA2t2WiZlVHrdnqoKVhMTU/KxPWxUKpPolxEd1NqSMp4eUUlAhfJh518Kf4+6d1RkctoJmF1p2W/H3hP709Llb38t1+fSZVUAd9tn6tL3MKrdUe0JE1W33vDtl+07pMuuAgDWpzonAqqnqTurukca6OmmpKdvVK7k83JltE90HhDJ9l693u1cyDyDCmVCE5Fa6lwKHXSTesTB1qe6/jUHzJVui7ac9gAANrS6JgLeBMHUMdVnHRR3tFxLHRuSyd5emRw65gS+xH5Jl5RRUVw6J0r2lapYxiYic3augs5EosqHnV/z9dBnr4/LhF03/L13X8+/rJxl9vf1FAN9LdfnKinr1RXV7krtKR11iKrb2QQAbCB1TQSS3gRB59n0ZK9vgpsOYF1dknajlVfGDmerJZt3nvP797WVfdwtqoxKAtp0FqB72KqMHpVI6vNHlQ85/8fuowVnOzPVWexZJ/ploM8Z1k9d3y8Dnc4EvLJyKsC6+/X9KOgH+J5ars8VLJsc7FSXpusKb3dke/zt/v5P7c6ougEAG03To09/uLiw8FTmF+blyZN5efz4c/nuhYvy1inVe6/Ro0ePZMuWLXbrGeWz0nZmhxT4+BoAAJGWGnPfOjkgr/Z2y+bNz8umTa1maW1tlZaWZmlpbqn/ZMEoZpLgAEkAAAD1tGYSgVTO+ZgbAAConzWTCAAAgPojEQAAIMZIBAAAiDESAQAAYoxEAACAGCMRAAAgxur6B4XOnKm9TgBAuIGBAbtW7ubNm3YN683LL79s1ypb6T8oVPdE4J133rFbAIClevPNN6smAi+99JLdwnrxwQcfNCwR4NEAAAAxRiIAAECMkQgAABBjJAIAAMQYiQAAoHEeXJB0+oI8sJuov8YkAtcy0tSUkWt2U+2QTGAbALBu6eC+datstUv6wiqEeRKIFdOYRODAiFw9el7ezs2YzZnc2yJXR+SA2QIArF+35MTey3Lw9kN5+FAvo7Jz5if2GNaihj0aODByVXYdf11y13Ly+sXD8obJAmYkt6dJMt7QgB4p2CNOvqDXm6TJLqbMTE72ePvcciFCyzn17XFfZMrYY7XWCwAIsVMS2+yq7JPTp/c5q4GRgrSUDRREHlfJhbd/q5y49UAuHD8lhcIp2au2V2XEIUYaOEfggLxxVuR490U5/F5W2s2+dsl++6icv2QzgWuX5PzRb0u2XScI3SJXF2Vx0VlGDqhA3vGhfNtuL04flouv51QqUSqq3AEZmdYNeFeVUPW/rtoxfUedq9Z6AQDl9skrr70vfTpon7hl92l6pGBGjplRArXcPiiXj/uH9qOOq6Cf7hMZtfvVcnrfNjly9qQkkyflttoeP+JlHXgGDZ0s2P71XXbN58AhOXr+kgrOOg84L0cPHVA99MtyUc7aUQNr5iO5J+el2+25dxyXu3c/lGl72FOpXHtW3jt7Tx3rkIuH31NJQJXyAICq9p22QfuVG04vXicED2blvtgEQS97dY9+RryHBlHHH9yUy3JSMnZQASuvgYmA6nnrTv7VXXI80OM+IIeOnpdL167JpfNHRecBkXaflWm3526WiHkGFcqFJiO11gsAiLbvtEoIRuW192+o/r5ie/Buz/7hw9MSiO/VjmNVNCwR8CYIHnhD9fWPy7u+jwwceOOs3Ovulntn33ACcPtBOVxSRkVw2XW3ZJ/LPOO3n0KoVM5NRhbtfAWdjVQsDwCoSD/n9z8S0D39ZLt8bVtCdhZOyYj/aYFf1PFtL8tBiXidf0TBz8w1OOEkH1q17ZhrTCJwLSMd3gTBdsm+pwO/7+ODOvDv3i2HDzozB4pl7HC9WjLXnGf8/n1Ne8Ke5UeVU0lAk84CdG9fldEjEx26DbXWCwAoowP3/T5vYt9W/QmCs0dkm540ePuk3O+z+/US+Phf1HFnPoB/v8kzth2RY3YuApMFl2dtfvug/jsDb78g03fcSYQAAI1vH9yY+PbBEmaS4LdJAgAAWG1rMhE4MKI/Hmg3AADAqlmTiQAAAKiPus8RAAAsD3MENp5GzhGoayIAAFhdOhHA+kQiAAAAqlrpRIA5AgAAxBiJAAAAMUYiAABAjJEIAAAQYyQCAADEGIkAAAAxRiIAAECMkQgAABBjJAIAAMRYXROBtras5O26qLVsYHuF5bPqfG3FJavONDssqdSwzNoiht7nlVvF9qyUsGsAAOAZ1TURGOsblTPDTgibHT6jduQkZbZW1uxwStp6VfVzczJnlzG5Eh7kE/2SLwxJV9eQFOZWpz0AAKxVdU0EUrkx6RzMyHB+WDLjaTlmou6sDKfaRHfYHXqkICVOvqDXi716UybQg3fL+c3K9XGRoUIwqKdyzxDkTe87K1nVvkAbzCGVbJS2w/bWh7N6nzO6EF2uWG8279wDZ13XbsuUvk7fq8ygTEwMSlLtT+mdYeWqtYMRBQCAVec5Aik5NiQy2Dsu6ZF+SZh9Cekf6JPRKzYC5q/IaN+A9Cd0cDTdeq9Xn0upxCA5JQNuT7+QlvFM6VD/dRmf6JQOp/Llm5iUHSP2fGOqnb1OYE305712zY11yuA5234VpKd69H4n8YguZ+s1dWZE3PUz+nqirlPdqxF39GJO8v0fR98PfztUYpAZ7PRGSMY6p+Rj0wgAQNzVfbJgoqPTrvmkeqRv1Bm6z18Zlb4eFUJ1QJchO2pgzU7LpIxKr9uzTerecUhQ69oh2+3qsnWlZb+bVOh2qhZMu71utx29oyKT004AVkE62Oaocrbe7TtUYPet62O1Xmelcv52JDqk05RzkphnGh0BAGxIdU4EVE9Xd/J1zzjQk09JT9+oXMnn5cpon+g8IJLtDXu97NLn+jroTYzL9WLlK+8TFdyT45Iu2DboOQb2UIBOAmopF6badbpqKpeSnDnWI1dM0rAOJkUCAOqiromAN0EwdUz19QfFHSXXUseGZLK3VyaHjjmBLLFf0iVlnCBfsq+MffyQDAa7fHYFgp9+bKF7719V676Rgtnr4zLhrJartZxftet0e/013Q9FJSRZM3lAJwQFGeqyoxoAgNirayKQ9CYIOs+6J+3zdkMH/q4uSXvj8G4ZO+ytlmxeBTLVq/bvC5v4pp/LF4Ymi0PmaumVHifBUIFTT7Rz9qvzm167OwEvJFnwl9ejGfl+SST6ZaCzuD8z1Rne06+1XJkK16nr7HMeB6SGt9d0P3TCoDIjWyYp4+kR6XdvMwAg1poeffrDxYWFpzK/MC9PnszL48efy3cvXJS3Tqnee40ePXokW7ZssVvPSH/u/8wOKehAa3c1nE4S9Dy+tdQmAECsLTXmvnVyQF7t7ZbNm5+XTZtazdLa2iotLc3S0txS/8mCUcwkwQECLgAA9bRmEoFUTn880G6sFfqPDTEaAADYwNZMIgAAAOqPRAAAgBgjEQAAIMZIBAAAiDESAQAAYqyuf0fgzJna6wQAIG4GBgbsWrSV/jsCdU8E3nnnHbsFAABcb775ZkMSAR4NAAAQYyQCAADEGIkAAAAxRiIAAECMkQgAABBjJAIAAMQYiQAAADFGIgAAQIyRCAAAEGMkAgAAxBiJAAAAMUYiAABAjJEIAAAQYyQCAADEGIkAAAAxRiIAAECMkQgAABBjTY8+/eHiwsJTmV+YlydP5uXx48/luxcuylunztgi1T169Ei2bNlit6KdOVN7nQAAxM3AwIBdi1ZrzHW9dXJAXu3tls2bn5dNm1rN0traKi0tzdLS3FLfRAAAACzPSicCPBoAACDGSAQAAIgxEgEAAGKMRAAAgBgjEQAAIMZIBAAAiDESAQAAYoxEYKOaHZZUalhm7aYnan+YpZQFAKxL9U0EdGBpa5M2u6SGK4SYZQSh2eGUd46q51mP1muA9rebJAMA1oS6JgLZ5LikC3MyN6eXMemc+tgeCZHol3y+XxJ2s1Y6CUiOp6VgzmHPM5jceMnAeveM7y8AYGXV+dFAp3R4v/lTksulbM8wK9lUsQefzavDgR5jXrK+Hr533NuXEifO5+XcoMjQiD/AqPMUhkTGr8tsTedSfNuB0YWwHmxEO3R7veTDlLHHQstrJdf4vag2zcpwZlAmJgYlqcrpcwRHQPx1Tsk571r9+63ItoQIlM2q1rrK35vw9pS0++23i9cXVre93uGsu9++VwCAFVXXRKCnb1R69S/10t/oE5OyY8T24Mf6ZLTXH2hUAEn1ioy5Pfw5yaVU8ElOyYDb6y+kZTyjgsrstEx2pWV/aTcz0SGdE1Nixh8qnquECkaZwU51aqf8WKetwxPRDjf5GDynSugAqEdC8tKfiCofco3ftKcok5D+kSHp6hoyox75/oTqXOe9182NdarT2ivyXatpjjmXK6otYXTZQem07SsMTUqvk0GFvDe6sx/WnpJ2/86vmZqj61ZU0jDV49aj3qszUe0DADyruiYCqZz9pd5zxenlub/w/cE71SN9MinTn9jt2esyLkNyTAUYjw74YpMKvahAMuEG+moqnauUTiDMeZxkIZXLqRDvU6kdiX4Z0UGtLSnj6RGVBFQoH3aNS+HvUfeOikxOOwHTd62J/Wnp8t+jpdxDk2AV22fqGr0i+ah2R7UnTFTdesO3X7bvkC67CgBYOXV+NGClciohGJM+9xf+s7A9S6/nOaeCtOn5j8v10qhjgs0O2W43a6d69qbuHrliAlvI6EFYO+yhREenXfOpUP6Z6KDrn3uhuv41B8yVbou2nPYAAOquviMC/kcCUcE5f0VGdU/2q3Y7sV/SMijuaLdhAn7JPiMlx0KHwAdF0vvLJ6b5z+XrDc9eH5cJszIsWfOAWycEBRnqmpRpf5IR2Q5NndeMmuvJihnnOXlU+bBr1MLa5PL33n09/7Jyltnf11MM9BXbXqKkrFdXVLsrtad01CGqbmcTALDK6poIpCd7neFiMxSteo3upD4VCPQEMmcoWQXPwGxy59nyZK89rpZs3nkG79/nTuTTz6cL6fFifaZC51m6EXYubxjf2Z+Z6nR6sSpIyWDS1uMb4vdEtUMlAaZy3cNWZfRz8qQeTYgqH3KNH0e0SVPtHbDzLVLX98tAZ/GaAuV812o+SaEf4Hui72G5YNmknjdh6gpvd2R7/O3+/k/tzqi6AQD10PTo0x8uLiw8lfmFeXnyZF4eP/5cvnvhorx16owtUt2jR49ky5YtdmuJ9FByRmSkHh8lq+e5AABYBUuNuW+dHJBXe7tl8+bnZdOmVrO0trZKS0uztDS3NGiOAAAAWBManwjU8w/L1PNcAACsA4wIAAAQYyQCAADEGIkAAAAxRiIAAECMkQgAABBjJAIAAMRYXf+g0JkztdcJAAg3MDBg18rdvHnTrmG9efnll+1aZSv9B4Xqngi88847dgsAsFRvvvlm1UTgpZdesltYLz744IOGJQI8GgAAIMZIBAAAiDESAQAAYoxEAACAGCMRAAA0zoMLkk5fkAd2E/W39hOBmZzs2ZOTGbsJAFjjdHDfulW22iV9YRXCPAnEiln7iUB7Vu7cyUq73QQArGW35MTey3Lw9kN5+FAvo7Jz5if2GNaihiUCM7k90tTU5Cy6x296/hnJ7LH71JK5Zgr6RgSuScZ9jf+4t2+P5Nyhg8D+jHql3Vf1HIpvu6ydTgkAQKSdkthmV2WfnD69z1kNjBSkpWygIPK4Si68/VvlxK0HcuH4KSkUTsletb0qIw4x0phEQAXa14/vkquLi7Kolqu7PpRpvf/uPXnhPWff4tWjcr7bBnBjRnJ7ukW9yDmulpEDKjHo+FC+bbcXpw/Lxdd1sNb7j8suW3b67D3pNhFfqXiOElHtBABE2CevvPa+9OmgfeKW3afpkYIZOWZGCdRy+6BcPu4f2o86roJ+uk9k1O5Xy+l92+TI2ZOSTJ6U22p7/IiXdeAZNCYRaP+67JLz0m176gdGRuSA3r/7sBx0nwEcOCRH5Z589NBuz1yWi3JW3jAFrZmPVAldj+2xq+B/964K1nr/7mLZ9oOHZff5S07Ar3SOUlHtBABE2nfaBu1Xbji9eJ0QPJiV+2ITBL3s1T36GfEeGkQdf3BTLstJydhBBay8Bj0aOCAjppd9SC6ZIF6hV16NCvjTtsfuLCsZrFewnQAQN/tOq4RgVF57/4bq7yu2B+/27B8+PC2B+F7tOFZFwx4NZMzDfB1op+Xs7pBe+bVLcl733rfa7faDcliOy7v+SKx77HdL9mkl+2cuX5S7Rw+VJwj+c+iRBGevU96shLSTSQIAEE0/5/c/EtA9/WS7fG1bQnYWTsmI/2mBX9TxbS/LQYl4nX9Ewc/MNTjhJB9ate2Ya9ijATneYSfhdcjFw+9J1gTj49LhDvPr6QCBTwu0S/a9s3Kv2x5XS+aaCtDTwX3OhL7g/g79nH/EpgFh52jPynt6HoHd//qHu2S3LhvWTj6+AADRdOC+3+dN7NuqP0Fw9ohs05MGb5+U+312v14CH/+LOu7MB/DvN3nGtiNyzM5FYLLg8qydbx/UM/VfF3lvNT8qWI9zAMAq4tsHNya+fRAAADTE2kkE6vGHg/jjRAAABDAiAABAjNV9jgAAYHmYI7DxNHKOQF0TAQDA6tKJANYnEgEAAFDVSicCzBEAACDGSAQAAIgxEgEAAGKMRAAAgBgjEQAAIMZIBAAAiDESAQAAYoxEAACAGCMRAAAgxuqbCMwOS6qtTdrskhqetQdC6LKpYalQItLscMo7R9XzrIR8NnC+tmw+vP2B68+KKrW2LeM9AACsD3VNBLLJcUkX5mRuTi9j0jn1sT0SItEv+Xy/JOxmrXQSkBxPS8Gcw55nMLlqyYBJOnpFxrzzzcmYXAkP8vqaCkPS1TWk2peTlN0NAECj1PnRQKd0eJE9JbmcCoWm15mVbKrYo9Yd6mBvNC9ZryftO+7tS4kT5/NyblBkaMSfQKjzqOAr49dltqZzKb7twOhCWe94Vq6Pq/MVgkE9lXuGIB/VNnPIP8Jhr9W2cTir9zmjC9HlivVm87My7K3r2m2Z0tepaxvODMrExKAk1X6TSIWVq9aOsnsGAFhL6poI9PSNSq8ODl4EsiYmZceI7VGP9clor3/YXAcu0+X2ety5lEoMklMyYLfnCmkZz6iAMzstk11p2V86jJDokM6JKTHjDxXPVUIFucxgp9fbH+u0dbhmr8v4hD+5WaaItiX6884+s79TBs/ZFqsgPdWj9zuJR3Q5W6+pMyPirp/RQTriXqpUqn/EHb2Yk3z/xxHldP2+dlS7ZwCANaWuiUAqZ4NIzxWnt+gmBP7gneqRPpmU6U/stg62MiTH/F1sHfDFJhV6Seqea40Bp9K5SukEwpzHCcihPf2uHbLdri5bWNvcXrd7rb2jIpPTTgBWQTp4X6LK2Xq371CB3beuj9V6LyuV87ejlnsGAFgz6vxowErlVEIwJn2jEc/Sa2F7qiaxMIsKOKbnPy7XS8eizUjBswTslORM3T1yxQTAktGDqPOtpE9UcPfPrdBzDOyhAJ0E1FIuTNi9tIcCaipX5Z4BANaU+o4I+B8JRAXn/BUZ1b3Wr9rtxH5Jy6C4o9yGCcAl+4yUHBsSGXSHrA099D0okt5fPvHQfy5fL3j2+rhMmJVhyZoH4Tq4FWSoy/bQPfZ8yWCwy2dXIPj52+b24hWvbWFqLecXeS8t975UK+eqes8AAGtJXROB9GSvM6xshpZV79Wd1KcCjJ6Q5gxpi4wFPi3gPKue7LXH1ZLNOxMA/fvcSWn6OXkhPV6sz5nSL/l+W2PYuRL9MjI06Q17Z6Y6nd60Cn4qytt6kjKeHhG3Gpc5n++1eumVHhUGFf+5dM/Y9NrdCXghyUJE2wY6i/u9tpWqtVyZ6Htp6rTzOlLD26PL+dVwzwAAa0fTo09/uLiw8FTmF+blyZN5efz4c/nuhYvy1qkztkh1jx49ki1bttitJdLBUc9fe4aPCi5ZPc+1VGu5bQCANWOpMfetkwPyam+3bN78vGza1GqW1tZWaWlplpbmlgbNEQAAAGtC4xMB/Ud26tULrue5lmottw0AsGExIgAAQIyRCAAAEGMkAgAAxBiJAAAAMUYiAABAjNX17wicOVN7nQAAxM3AwIBdi7bSf0eg7onAO++8Y7cAAIDrzTffbEgiwKMBAABijEQAAIAYIxEAACDGSAQAAIgxEgEAAGKMRAAAgBgjEQAAIMZIBAAAiDESAQAAYoxEAACAGCMRAAAgxkgEAACIMRIBAABijEQAAIAYIxEAACDGSAQAAIgxEgEAAGKs6dGnP1xcWHgq8wvz8uTJvDx+/Ll898JFeevUGVukukePHsmWLVvsVrQzZ2qvEwCAuBkYGLBr0WqNua63Tg7Iq73dsnnz87JpU6tZWltbpaWlWVqaW+qbCAAAgOVZ6USARwMAAMQYiQAAADFGIgAAQIyRCAAAEGMkAgAAxBiJAAAAMUYiAABAjK3Y3xEAAAD1seb+oBAAAFib+INCAAAgEokAAAAxRiIAAECMkQgAABBjJAIAAMQYiQAAADFGIgAAQIyRCAAAEGMkAgAAxFhdE4HZ4ZS0tbV5S2p41h5ZRbPDkkoNSx3O5Cg9n3+73m0BAKCKuiUCOglIjqelMDcnc2YZk87BZH2SgbUi0S/5fL8k7CYAAI1Wp0QgL+cGRYZG/EEwJbnCkMj4dZmt1ItWr836RhGyeSep8EYWbLngaENKnPxiVoYzgzIxMShJtd8kHbpur1xW1W5ebM43nPXt8wk7X7CeqPPdDm6//bZzXYHzOYu+LiNQr1rCrs9tAwAAy1SXbx/c8vOLksqIjJT1hnWQvyI9hR1yxn9cB0OzvV+up5IyNTAnuZR5gXMsOSUDczmVSqgaslmRnLPuyWel7UqPzOkXeXXpuvX5ekXGnPrMKMXUgMwdm1Z1Dkqn3R8Qer4euaLbbfcFzhE4X8SxEZGM/3y6vWd2SCHfIed87fNea8pHXzPf/ggA8bLmvn1QB6KKjSoNjp4qiYAOgGWvc4L5qPSpeOlLAPRrVHCdsJvSNaQCqy/4lq7rMuY1KsCWnj8g5Hyl5zLs8bBzlJ6/9Lqq7bcJQtk1AwBip2rMLbE2vn0w0SGdE+NyvXQ8e3ZaJrt2yHa7WZuU5MwcA90r10PlWcnrgJkcl3TBzj8oDEmXLb18IefTu3Wi4c130MsKBOiPp0qSC1dEGwAAWKY6zRFIybEhkcGM/9m26mnr4fEB2/udmJKPzX6VH1wfdwJiYr+kZVDO+aOeCvpZ80BeB8eCDHVNyvQnarMrLfttd957vcut2yQkxfpMub6eygE87HwSrKeM71qM0u0oqR7pC02YQtpQWgYAgGdQt08NJPrzUkiPm0lzzqQ337PwRL+MDE1Krz2Wmeq0PfqE9I8MyWSv+5o2yX7coTKKpN1Oynh6RPr39stApzMhL/h6RdU90Ddq6k4NbzcTFN36koOdMlY2KaCESh7KzpdQAdlXj1ncCXyB86k9/u3v/9RUGU3VO9apTmfrdB8/hLbBvAAAgGWpzxyBUt6zbzsagHD+SY8AACjrc45AKd1L9nrw7kfvoOV9Hyk0gyYkAQCAVdSYREBJ5dxJdnmGuX2K90UvfEIAALC6GpYIAACAxiMRAAAgxkgEAACIMRIBAABijEQAAIAYIxEAACDGSAQAAIgxEgEAAGKMRAAAgBgjEQAAIMZIBAAAiDESgfVOf5Oj+xXIflH7wyylLABgQ6l7IjA7nCp+u55azHf2r7b1Gug2QrtJMgBgTatrIqCTgOR4Wgret+uNSedgsj7JABoj0S/5fL/wBZMAsDbVNRE4NygyNOIPCinJFYZExq/LbGnPMbCdl6xvFCGbd5IKb2TBlguONqTEyS9mZTgzKBMTg5JU+03Soev2ymVV7ebF5nzDWd8+v8Br3LqddnmJjCljj4WW10qu5XvOeb3Dth2zIe0Ovz5tSs6lwvZbkW0JESjrvw9V3gOv3pJ2v/128frC6rbX69x3Z9F1AwDqo66JwGRXWvaXdg0THdI5MSUf281yKrCkekXGit/Tn9s+LJnBTrXL2R7rdF6f6M97ZebGOmXwnI4oCekfGZKuriEzEpHv/1iyyUHptPUVhial1408KnhN9ej9OZWi+KkgmJySAbfuQlrGMzq42URm8JwqoQPguKQLeelPRJUPuZZv2lOUKW13IuL6lIlJ2THi7DfNMedyRbUljC4bdm9C2q1uUE33+3d+zdQcXbfi3XddT5+MnolqHwBgpa39yYKz12VchuSYPzLr5EFGpdf2KlM5G7j9Pc7eUZV5TJcHlNlplZAU60vsT0vX6BVTj/j2B+jXmPPZulVAm3CTl0S/jOig1paU8fSISgIqlA+7lqWIuj5fgmWux59YVWp7qah7E9XuWu63q9b7vn2HdNlVAMDqq2si0DkxLtdLI4UJEDtku92sjeqJm55oj1wxgUglBDooJXWP3PYsVdd4RQOKClbFuQ16KY4aJDo67ZpPhfLPZDnXt9Jt0Vb7fgMA6qKuicCx0GHrQekcsPMGfD3V2evjMqFXEvslLYPijoIbKghlzQNpnRAUZKhrUqY/UZu+nrH3epfXg9ePIor1mXJ9PZUDY8lrgtQ1mFFzPfEx4zwnjyofdi1a2HW7/L33StdnlV1PxbaXiLo3Ue2u5X67nuW+AwBWXV0TAf1MuZAeN5PIzHBym/PcWT9vLg6xO8cyU522h+k8c57sdV/TJtmPO1RGkbTbdkh+b78MdDoT1IKvV1TdA33O8HhqeLt5ru/Wl9RzDUwDKnHmAvjb4ExQVEmAuQbdw1Zl9HPypH5cEVU+7Fqirlvxt/v6/ujrUwHW3W8+lRG4nqi2hAmWLd6b8HbXdL+//1O7M6puAEAjNT369IeLCwtPZX5hXp48mZfHjz+X7164KG+dOmOLVPfo0SPZsmWL3aqRHlrOiIzw0TIAAGq21Jj71skBebW3WzZvfl42bWo1S2trq7S0NEtLc0sDJwvqXqPXo6zykTYAALAqGvqpgVTOnbymP3JndwIAgLppaCIAAAAai0QAAIAYIxEAACDGSAQAAIgxEgEAAGKMRAAAgBir6x8UOnOm9joBAOEGBgbsWrmbN2/aNaw3L7/8sl2rbKX/oFDdE4F33nnHbgEAlurNN9+smgi89NJLdgvrxQcffNCwRIBHAwAAxBiJAAAAMUYiAABAjJEIAAAQY+srEZjJyZ49OZmxm+vecq9nrd4P3a5kWpLLbdtGe7/9rmWkqanJLJlrdh8QRw8uSDp9QR7YTdRfYxMB3y9Ds1T5jThz+aLIb/47ed3/mqaMrNnfozqQBdpq27tCAc7cj8MHpV2v5/YEzrMnt4rhs+S6Ss9l2tX9omy22wFLuHb/9dXVqicg1yTTfU/OTi/K4uKijBywu4GNQgf3rVtlq13SF1YhzJNArJiGJQImcHWLXFW/CPUvQ71clUsVg/r0hyou7Pt1kd1nZdp93VUVc9Zyr9HfVrOMyIH2rNy5k112gDP342C7uZcdFw/7znNVdh3vWKVkQAWxjoty2AYxc64Pp+0xh/c+hVnCtbvXt+HMfCT3ZJd8fQNeGiByS07svSwHbz+Uhw/1Mio7Z35ij2EtalAiMCO6s3d2WgVFu0c7MGK3TY9zjwTj2DW5dF798txqN10HDsnRux/KtO3F5TK2162PBXquvpGDwH616EQi5PXBXrZtjymXkcweZ3/m2ozkvHVTe3X2XIHLC7SpeO2BNgReY+9H+zV597i6l+/5g+sBGZk+K3Lxsndd3usC2yqoe+d02h99Pj9/EFPnCnRp/e/Th/KuvTfB+6fqtT+d++0swfvnXp+z7m+n//1aznWFvr/qSO7143L37nHpUPtNMqXr9sr5/m157ff92ypVVk4nUqp+OS/duj7/NbgC53Pb5VyTl9yZMr57WlYeaKSdkthmV2WfnD69z1kNjBSkpWygIPK4Si68/VvlxK0HcuH4KSkUTsletb0qIw4x0phEYOayXLzrDyY1uHZJzh89FEgctJnc23J+9wvSoTfUL+8PD9let/2Fu+uq03OdPntPuk2kCe5fVAFzt36tFni97rzeccro5eouOf6u/XV/95688J7ed1TOd78u4q6/HfJL3QaUYsAJCxq6TR/Kt91zTR+Wi6+rutQv+NeP7/JGTa7uUgmPfYV3P3TvcvdhKes4t39ddukEyW6W0wmMGZLxrnGko8L5PAfk0FEbxMIyH//75N4nVZfOS47razKFLO9+q6X0/nn1lLTT/36Fqv26wt/fdsm+p85hR3LuZKcj/h0pJf9eIgXKOUmaW/9i2ehIxL8F+zrVSFVCJyt6VOaOZFUiGF4eaJR98spr70ufDtonbtl9mh4pmJFjZpRALbcPyuXj/qH9qOMq6Kf7REbtfrWc3rdNjpw9KcnkSbmttsePeFkHnkHj5gi4wTuMHj5e1L/k7LZy7dJ5OXrI/rr1BVczJO7+MlW/XN9wfyObAFncbj94WHafvyTXSvYHlO7397S6z4vc+8j5BesG3o4X1C9037o+Vsr9he8tIUHDDBXb4KoX3WPUQVwHc7PfSR68ERMlcD+ehU7GpOR6I87n7znrHumBEXsthy45+30JQaBdvgTF3P/SxMR/v0vuX7Geafnw7lGp+VKXcF2R769f1L8jvRH176hUreW0qH8L+pj67+I9nYg0dcjFw+85/31UKg80yL7TNmi/csPpxeuE4MGs3BebIOhlr+7Rz4j30CDq+IObcllOSsYOKmDlNSYRML3Vi3K55m7LjHx0b7e84GYO/uC61Gft0x/KXbtakQ4S/mfhVXuiy+S/JrPY3qNZPySXzC96dzTBdz+i7qUJYBWSrVDh5/P3nO/4s7MDI2rfVTnqBsbS9+mZrVQ9rpDrqvf7uxSh/xYc7V/fZdd8KpQHGmrfaZUQjMpr799Q/X3F9uDdnv3Dh6clEN+rHceqaNCIwAF5Q49ydriBzXEtY7dNT833rNP08kKGvysxAfK4uKP5egb6XT3UbOYU1JiE+Hq05vXO6soraatH3YeMuQk6kE3L2d335CO9Gbgf9l4GhoPt449v2yTJ10P0rqP9oKqh5JxR5/PT743/kYA/4ajwPnn3325XFKinQ17YfV4uld4bbTnX9VBtVnp/vV54xL8jZ3NlmH/v9t9+1L8FQ72v5qmHngz6uvPfR8XyQAPo5/z+RwK6p59sl69tS8jOwikZ8T8t8Is6vu1lOSgRr/OPKPiZuQYnnORDq7Ydcw17NKB7meZ5qzukqZZuCf8Fq3/5Lv1jZOqXvurl3et26u7Qz4jNpDa1Xz8P7rDn1UOpzguC2rPy7V3FRxCvf7hrFXuMwbaaRU8iU7/kVUPtvuJwcOn9MPfy8EXfXATnGbm5XG842TlWvA7nWbj/nJnp8PMF6EB7r9t7TZPuVduJimXvkwpQgUc4NX5OLlhPSTvd92u51/VyhfdXv/d2HsSeXEfEv6PVEvFvQScB5n21I0Xm37BOHqLKAw2iA/f9Pm9i31b9CYKzR2SbnjR4+6Tc77P79RL4+F/UcWc+gH+/yTO2HZFjdi4CkwWXZ118++C1TJNcOrRKn7fWf8vg0iFZXNVf7iur4v3QvUs9f3EFPp64VCv1Pq3V6wPWAr59cGPi2wcr0h8jW8JksRroQOP1nkwna/0kAVXvR2Ako54fJVup92nl3+/60D12378rb+HjfADWtnWQCByQkRWe/OTNel+XE6uq34/i9QU/ebG6Vup9qlKPSnRW4o8xrTzdbv+/q0a8BwCwdOsgEQAAAKul7nMEAADLwxyBjaeRcwTqmggAAFaXTgSwPpEIAACAqlY6EWCOAAAAMUYiAABAjJEIAAAQYyQCAADEGIkAAAAxRiIAAECMkQgAABBjJAIAAMTYiv1BIQAAUB9r7i8LAgCAtYm/LAgAACKRCAAAEGMkAgAAxBiJAAAAMUYiAABAjJEIAAAQYyQCAADE2Ir9HYGbN2/aNdTi5ZdftmvhuJ/VVbuHAIA6/kEhHbheeuklu4VKPvjgg5oSAe5ntFruIQCAPygEAAAqIBEAACDGSAQAAIgxEgEAAGJsbScCDy5IOn1BHtjNJVvu67E83H8AWPNWMRF4IBfSW2UrgWDtuHVCtm5V74m7nLhlDwAA4mr1EoEHN+WyvKb+d1lukgk03IMLadnaJzL68KE8tMuo3BBSAQCIt1VLBB7cvCxyMCOv7CzIZTcTMEPFJ+SEHimwvVLTKY3a73FGF4r7bsmJrWm5UJZg6P2+Ov6ls/fmifJ6TWD0ytq67FD2hZDy5phXXi3uSEdgf7FNgfobPiryQPTbcfL2adln92j7TjvbS74XpfdZ74+4DwCAtW2VEgEn8Bx8eZvse+U1KVy+WQyEhfvSftb2Skdfk/f7Tji90qj9xjY5ckztu2H33Loh7792TI5sczYdOlkwXV6vx3v6r6vdhVMy84qv3nNOUN52ZNwr93B0p5wasXWHlleBb+8p2enWffukJE1hvX9Gjrn13D4ol4+r8iooHj+10+t9j+6ckZ+Y8g2iR2cKOyURuF9FS7sXIfd5X8R9cGoBAKxhq5MImMcCB0XlAarb+Yq8VvA9Hkja/Zo+Jvdl9t+o9aj9Lr3vfWco+9aN9+W1V/x9W8Wc86RkSnZL0rfva+02gCv+Hmzf+yL3Z53AFVb+wazc9+936f3yvvS59ahkoVBQQX9bQnaa/U4y4/a8GyrZLl+zq2WWdC9C7nPUfbCHAQBr16okAvqxQEH1JveawNCnQoTv8cAz2yevvPa+3Lh1S268/5qU5gFLogPfXpWq3HZ7sG4PP8JPZtQVRFDB8rbbEzaLDvr75LRZf0VumHvgH91oAJ2Y+JMxv6Xeiyih9wEAsNatQiKgHwsU5DXf0LEeVg48HnDpIX49EvBX7bYrYv++zEm539cn909myoPMtpfloJwSd1S7Kt8IhElcnNVwpaMaLhNgQ86pgusJ85BcJwS35WTyvswuNw9aln2ibp2c2htMSG6dsNtLuRdh9znqPgAA1ryVTwTCho7dQKqH+r2RArXoR83jR8TEoKj9fjoIJZNm7kG5bXLkrE4UbB1qcScLltl2RI7tLJ7v+MzOKr1gFdD1s/O9tm499O3uVz1o/znNxEAVGFVhu2+vXD54tmQ+Q/3peQC3T94vDt+rpU9ekX1Lvhch9/lWxH2wrwAArF31/fZBPQx9XORsaZCP2l9Kfw7+XLvcrlZutel23HhFHp5+tsFvvn1w+fj2QQCozYb69kEzSfBYY5KAW76P0ZkRi2dMAgAAWEvqmwhsOyLjoUP+EftL7DutP6pmN+pMn9ub88BEOADABrGuRgQAAMDKIhEAACDGVnSyIGpXy2RBVMZkQQCortpkwbJE4Je/fCx/8E/GlpwIAACAtac0EWhtfc4kAs8911L+qYHFxUW7BgAANgod393F5a4zRwAAgBgjEQAAIMYCiUBTU5NdAwAAG4WO7+7ictfLRgRIBgAA2LhKE4Lm0h0AAGBj0WHejfduzHfXGREAAGCDc4J+eTKg2RGB8IMAAGD9a25uDsR5HerddW9EwGzYggAAYONwg74O8d66/p/6aUYEdALQ3OQkAc3NJAIAAGwkOs63tLSYxUsEzOKbLKgXnQTowgAAYOPQ3yvgjvqbWG87/2b52aPJxadPn8rCwoJansqT+XnJnRu1LwUAAOvd3z5yOPAdA8+1PFdMDnQi8MUXX3iJwMLTBZmf18u8PH36hVqemp+6jF703yYu/iz+7WL3bxYDAID68Xr2trfv/HSCvH4UoAO/TgKee85dnC8bCiQCOog7Ad8J+joZ0EmB3tZB300EdDknIXACv17X9LpeAABAfblJgOYf/tdJgJMMuAmBMwrgTwJM+Z//9McqhrsBvjgC8PSLYBKgF6ecU9Z9jabX9QIAAOorPBFwEoDiug3+Tc66OyfQlP/s3+tEQLzg7o4CuAFfJwRO0A8mAPqns/D1xQAA1Is/5roJgJMMFJMCL8ibdZsMNDsjBIEkQJf/07n7Zo6Artcf6J3FF/wX3WNuAlC+AACA+nKDf+nizRfw/jxAeRJgfv7Zzz6yiYAO5sFkwP3pD/5uQuAsxczE/QkAAOpHB3T3p151fhYTALNuEwBn3f9Tlf/lz6d8iYAT3P3bwXW3jFr0/9RPzf0JAABWlz/m6oBe+tP8T/9Uizsq4Kz7EwObBOh174XeUtx+4TdSprC7ODMP7aQDPeuwxuWlv/7bofuXuqylejbiNemFexO9cG+iF+5x9MK9iV64N9FLpXr03wBwl7Dj7sRAvexKHvBieFSsb3r82bRKLnw9fW9xso6oRSv+ND8AAEAD6MDu/PSNDEQu/uNN8v8DsGmvT+XvX04AAAAASUVORK5CYII=;" vertex="1" parent="1">
          <mxGeometry x="640" y="219.5" width="514" height="511" as="geometry" />
        </mxCell>
        <mxCell id="g0Y9ytgMzjQodCcQfiRF-6" style="edgeStyle=orthogonalEdgeStyle;rounded=0;orthogonalLoop=1;jettySize=auto;html=1;exitX=1;exitY=0.5;exitDx=0;exitDy=0;strokeWidth=3;fillColor=#f8cecc;strokeColor=#b85450;" edge="1" parent="1" source="g0Y9ytgMzjQodCcQfiRF-3" target="g0Y9ytgMzjQodCcQfiRF-2">
          <mxGeometry relative="1" as="geometry" />
        </mxCell>
        <mxCell id="g0Y9ytgMzjQodCcQfiRF-3" value="" style="rounded=0;whiteSpace=wrap;html=1;fillColor=none;strokeWidth=3;strokeColor=#FF0000;" vertex="1" parent="1">
          <mxGeometry x="300" y="460" width="260" height="30" as="geometry" />
        </mxCell>
        <mxCell id="g0Y9ytgMzjQodCcQfiRF-4" value="" style="rounded=0;whiteSpace=wrap;html=1;fillColor=none;strokeWidth=3;strokeColor=#FF0000;" vertex="1" parent="1">
          <mxGeometry x="300" y="260" width="80" height="30" as="geometry" />
        </mxCell>
        <mxCell id="g0Y9ytgMzjQodCcQfiRF-5" style="edgeStyle=orthogonalEdgeStyle;rounded=0;orthogonalLoop=1;jettySize=auto;html=1;exitX=0.5;exitY=1;exitDx=0;exitDy=0;entryX=0.154;entryY=0.133;entryDx=0;entryDy=0;entryPerimeter=0;fillColor=#f8cecc;strokeColor=#b85450;strokeWidth=3;" edge="1" parent="1" source="g0Y9ytgMzjQodCcQfiRF-4" target="g0Y9ytgMzjQodCcQfiRF-3">
          <mxGeometry relative="1" as="geometry" />
        </mxCell>
      </root>
    </mxGraphModel>
  </diagram>
</mxfile>
